<mxfile host="65bd71144e">
    <diagram id="2H3O8ypB0KfYEaYop3CQ" name="Page-1">
        <mxGraphModel dx="1275" dy="1042" grid="1" gridSize="10" guides="1" tooltips="1" connect="1" arrows="1" fold="1" page="1" pageScale="1" pageWidth="827" pageHeight="1169" math="0" shadow="0">
            <root>
                <mxCell id="0"/>
                <mxCell id="1" parent="0"/>
                <mxCell id="47" value="" style="rounded=0;whiteSpace=wrap;html=1;labelBackgroundColor=none;" parent="1" vertex="1">
                    <mxGeometry x="100" y="90" width="800" height="520" as="geometry"/>
                </mxCell>
                <mxCell id="41" value="" style="rounded=0;whiteSpace=wrap;html=1;labelBackgroundColor=#000000;" parent="1" vertex="1">
                    <mxGeometry x="150" y="130" width="520" height="440" as="geometry"/>
                </mxCell>
                <mxCell id="11" value="" style="group" parent="1" vertex="1" connectable="0">
                    <mxGeometry x="363.0015828257764" y="280" width="100" height="105.87" as="geometry"/>
                </mxCell>
                <mxCell id="5" value="" style="shape=image;imageAspect=0;aspect=fixed;verticalLabelPosition=bottom;verticalAlign=top;image=data:image/svg+xml,PHN2ZyB4bWxucz0iaHR0cDovL3d3dy53My5vcmcvMjAwMC9zdmciIHByZXNlcnZlQXNwZWN0UmF0aW89InhNaWRZTWlkIiB2ZXJzaW9uPSIxLjEiIHZpZXdCb3g9IjAgMCAyNTUuOTk5OTg0NzQxMjEwOTQgMjMwLjg4MDIzMzc2NDY0ODQ0IiBoZWlnaHQ9IjIzMC44ODAyMzM3NjQ2NDg0NCIgd2lkdGg9IjI1NS45OTk5ODQ3NDEyMTA5NCI+CiAgICA8dGl0bGU+Q2xvdWRGcmFtZSBXb3JrZXJzPC90aXRsZT4KICAgIDxkZWZzPgogICAgICAgIDxsaW5lYXJHcmFkaWVudCBpZD0iY2ZXb3JrZXJzTGluZWFyR3JhZGllbnQtMSIgeTI9IjguNyUiIHgyPSIyNS43JSIgeTE9IjEwMCUiIHgxPSI1MCUiPgogICAgICAgICAgICA8c3RvcCBvZmZzZXQ9IjAlIiBzdG9wLWNvbG9yPSIjRUI2RjA3Ii8+CiAgICAgICAgICAgIDxzdG9wIG9mZnNldD0iMTAwJSIgc3RvcC1jb2xvcj0iI0ZBQjc0MyIvPgogICAgICAgIDwvbGluZWFyR3JhZGllbnQ+CiAgICAgICAgPGxpbmVhckdyYWRpZW50IGlkPSJjZldvcmtlcnNMaW5lYXJHcmFkaWVudC0yIiB5Mj0iMjkuNSUiIHgyPSI0MC41JSIgeTE9IjgzLjclIiB4MT0iODElIj4KICAgICAgICAgICAgPHN0b3Agb2Zmc2V0PSIwJSIgc3RvcC1jb2xvcj0iI0Q5NjUwNCIvPgogICAgICAgICAgICA8c3RvcCBvZmZzZXQ9IjEwMCUiIHN0b3Atb3BhY2l0eT0iMCIgc3RvcC1jb2xvcj0iI0Q5NjUwNCIvPgogICAgICAgIDwvbGluZWFyR3JhZGllbnQ+CiAgICAgICAgPGxpbmVhckdyYWRpZW50IGlkPSJjZldvcmtlcnNMaW5lYXJHcmFkaWVudC0zIiB5Mj0iNzkuOSUiIHgyPSI4NCUiIHkxPSI4LjclIiB4MT0iNDIlIj4KICAgICAgICAgICAgPHN0b3Agb2Zmc2V0PSIwJSIgc3RvcC1jb2xvcj0iI0VCNkYwNyIvPgogICAgICAgICAgICA8c3RvcCBvZmZzZXQ9IjEwMCUiIHN0b3Atb3BhY2l0eT0iMCIgc3RvcC1jb2xvcj0iI0VCNzIwQSIvPgogICAgICAgIDwvbGluZWFyR3JhZGllbnQ+CiAgICAgICAgPGxpbmVhckdyYWRpZW50IGlkPSJjZldvcmtlcnNMaW5lYXJHcmFkaWVudC00IiB5Mj0iOC43JSIgeDI9IjI1LjclIiB5MT0iMTAwJSIgeDE9IjUwJSI+CiAgICAgICAgICAgIDxzdG9wIG9mZnNldD0iMCUiIHN0b3AtY29sb3I9IiNFRTZGMDUiLz4KICAgICAgICAgICAgPHN0b3Agb2Zmc2V0PSIxMDAlIiBzdG9wLWNvbG9yPSIjRkFCNzQzIi8+CiAgICAgICAgPC9saW5lYXJHcmFkaWVudD4KICAgICAgICA8bGluZWFyR3JhZGllbnQgaWQ9ImNmV29ya2Vyc0xpbmVhckdyYWRpZW50LTUiIHkyPSIwJSIgeDI9IjkxLjclIiB5MT0iMTAwJSIgeDE9Ii0zMy4yJSI+CiAgICAgICAgICAgIDxzdG9wIG9mZnNldD0iMCUiIHN0b3Atb3BhY2l0eT0iMC44IiBzdG9wLWNvbG9yPSIjRDk2NTA0Ii8+CiAgICAgICAgICAgIDxzdG9wIG9mZnNldD0iNDkuOCUiIHN0b3Atb3BhY2l0eT0iMC4yIiBzdG9wLWNvbG9yPSIjRDk2NTA0Ii8+CiAgICAgICAgICAgIDxzdG9wIG9mZnNldD0iMTAwJSIgc3RvcC1vcGFjaXR5PSIwIiBzdG9wLWNvbG9yPSIjRDk2NTA0Ii8+CiAgICAgICAgPC9saW5lYXJHcmFkaWVudD4KICAgICAgICA8bGluZWFyR3JhZGllbnQgaWQ9ImNmV29ya2Vyc0xpbmVhckdyYWRpZW50LTYiIHkyPSI4LjclIiB4Mj0iMjUuNyUiIHkxPSIxMDAlIiB4MT0iNTAlIj4KICAgICAgICAgICAgPHN0b3Agb2Zmc2V0PSIwJSIgc3RvcC1jb2xvcj0iI0ZGQTk1RiIvPgogICAgICAgICAgICA8c3RvcCBvZmZzZXQ9IjEwMCUiIHN0b3AtY29sb3I9IiNGRkVCQzgiLz4KICAgICAgICA8L2xpbmVhckdyYWRpZW50PgogICAgICAgIDxsaW5lYXJHcmFkaWVudCBpZD0iY2ZXb3JrZXJzTGluZWFyR3JhZGllbnQtNyIgeTI9IjQ4LjglIiB4Mj0iOTYuNSUiIHkxPSIxLjElIiB4MT0iOC4xJSI+CiAgICAgICAgICAgIDxzdG9wIG9mZnNldD0iMCUiIHN0b3Atb3BhY2l0eT0iMC41IiBzdG9wLWNvbG9yPSIjRkZGRkZGIi8+CiAgICAgICAgICAgIDxzdG9wIG9mZnNldD0iMTAwJSIgc3RvcC1vcGFjaXR5PSIwLjEiIHN0b3AtY29sb3I9IiNGRkZGRkYiLz4KICAgICAgICA8L2xpbmVhckdyYWRpZW50PgogICAgICAgIDxsaW5lYXJHcmFkaWVudCBpZD0iY2ZXb3JrZXJzTGluZWFyR3JhZGllbnQtOCIgeTI9IjQ2LjIlIiB4Mj0iMTAwJSIgeTE9IjEwNC4yJSIgeDE9Ii0xMy43JSI+CiAgICAgICAgICAgIDxzdG9wIG9mZnNldD0iMCUiIHN0b3Atb3BhY2l0eT0iMC41IiBzdG9wLWNvbG9yPSIjRkZGRkZGIi8+CiAgICAgICAgICAgIDxzdG9wIG9mZnNldD0iMTAwJSIgc3RvcC1vcGFjaXR5PSIwLjEiIHN0b3AtY29sb3I9IiNGRkZGRkYiLz4KICAgICAgICA8L2xpbmVhckdyYWRpZW50PgogICAgPC9kZWZzPgogICAgPGc+CiAgICAgICAgPHBhdGggZmlsbD0idXJsKCNjZldvcmtlcnNMaW5lYXJHcmFkaWVudC0xKSIgZD0iTTY1LjgyMDc5OSwzLjMyMzc4ODkzIEw5NS45ODExMDYsNTcuNzM1NDQ0OCBMNjguMjgyODY0OSwxMDcuNTkyMjc5IEM2NS41ODcwMTYxLDExMi40MzMxMTUgNjUuNTg3MDE2MSwxMTguMzI0MDA5IDY4LjI4Mjg2NDksMTIzLjE2NDg0NSBMOTUuOTgxMTA2LDE3My4xNDQ3ODMgTDY1LjgyMDc5OSwyMjcuNTU2NDM5IEM2MC4xNDU2OTA4LDIyNC43NDI4ODIgNTUuNDMzMDE5LDIyMC4zMDg2ODcgNTIuMjc5NDM2NywyMTQuODE1MjQ4IEw0LjI2OTE1MjE3LDEzMS40MTI3NjYgQy0xLjQyMzA1MDcyLDEyMS41MDMwNTQgLTEuNDIzMDUwNzIsMTA5LjMxNTYyMiA0LjI2OTE1MjE3LDk5LjQwNTkwOTcgTDUyLjI3OTQzNjcsMTYuMDAzNDI4MiBDNTUuNDQyNTUwMiwxMC41MzI3ODYyIDYwLjE1NDI4MTMsNi4xMjA4OTI0IDY1LjgyMDc5OSwzLjMyMzc4ODkzIFoiLz4KICAgICAgICA8cGF0aCBvcGFjaXR5PSIwLjciIGZpbGw9InVybCgjY2ZXb3JrZXJzTGluZWFyR3JhZGllbnQtMikiIGQ9Ik02OC4yODI4NjQ5LDEwNy42NTM4MyBDNjUuNjA5ODA5LDExMi40Nzg2NzcgNjUuNjA5ODA5LDExOC4zMzk5OTggNjguMjgyODY0OSwxMjMuMTY0ODQ1IEw5NS45ODExMDYsMTczLjE0NDc4MyBMNjUuODIwNzk5LDIyNy41NTY0MzkgQzYwLjE0NTY5MDgsMjI0Ljc0Mjg4MiA1NS40MzMwMTksMjIwLjMwODY4NyA1Mi4yNzk0MzY3LDIxNC44MTUyNDggTDQuMjY5MTUyMTcsMTMxLjQxMjc2NiBDMC40NTI5NTAwNjIsMTI0LjgyNjc0IDIxLjgxMTM3MTUsMTE2Ljk0ODEyOSA2OC4yODI4NjQ5LDEwNy43MTUzODIgTDY4LjI4Mjg2NDksMTA3LjY1MzgzIFoiLz4KICAgICAgICA8cGF0aCBvcGFjaXR5PSIwLjUiIGZpbGw9InVybCgjY2ZXb3JrZXJzTGluZWFyR3JhZGllbnQtMykiIGQ9Ik02OC44OTgzODE0LDguODAxODg1NSBMOTUuOTgxMTA2LDU3LjczNTQ0NDggTDkxLjQ4NzgzNTgsNjUuNTUyNTAzOSBMNjcuNjA1Nzk2OCwyNS4xMTMwNzE5IEM2MC43MTIwMTI0LDEzLjg0OTEyMDUgNTAuMTg2NjgwNywxOS42OTY1MjcgMzcuMDE0NjI4Myw0Mi40NzA2MzYzIEwzOC45ODQyODEsMzkuMDg1Mjk1OCBMNTIuMjc5NDM2NywxNi4wMDM0MjgyIEM1NS40MDk3MjI2LDEwLjU1MDY5MjcgNjAuMDc2NjQ0Myw2LjE0MDY2NTcyIDY1LjY5NzY5NTgsMy4zMjM3ODg5MyBMNjguODM2ODI5Nyw4LjgwMTg4NTUgTDY4Ljg5ODM4MTQsOC44MDE4ODU1IFoiLz4KICAgICAgICA8cGF0aCBmaWxsPSJ1cmwoI2NmV29ya2Vyc0xpbmVhckdyYWRpZW50LTQpIiBkPSJNMjAzLjY5NjQ4OCwxNi4wMDM0MjgyIEwyNTEuNzA2NzczLDk5LjQwNTkwOTcgQzI1Ny40MzEwNzYsMTA5LjI1NDE3MyAyNTcuNDMxMDc2LDEyMS41NjQ1MDMgMjUxLjcwNjc3MywxMzEuNDEyNzY2IEwyMDMuNjk2NDg4LDIxNC44MTUyNDggQzE5Ny45ODI2NzksMjI0LjcxMTg2MSAxODcuNDI1ODY3LDIzMC44MTEzNTIgMTc1Ljk5ODI0NywyMzAuODE4Njc2IEwxMjcuOTg3OTYyLDIzMC44MTg2NzYgTDE4Ny42OTMwNiwxMjMuMTY0ODQ1IEMxOTAuMzY2MTE2LDExOC4zMzk5OTggMTkwLjM2NjExNiwxMTIuNDc4Njc3IDE4Ny42OTMwNiwxMDcuNjUzODMgTDEyNy45ODc5NjIsMCBMMTc1Ljk5ODI0NywwIEMxODcuNDI1ODY3LDAuMDA3MzI0MDQzMTIgMTk3Ljk4MjY3OSw2LjEwNjgxNTI2IDIwMy42OTY0ODgsMTYuMDAzNDI4MiBMMjAzLjY5NjQ4OCwxNi4wMDM0MjgyIFoiLz4KICAgICAgICA8cGF0aCBmaWxsPSJ1cmwoI2NmV29ya2Vyc0xpbmVhckdyYWRpZW50LTUpIiBkPSJNMTczLjUzNjE4MSwyMzAuNDQ5MzY2IEwxMjYuMTQxNDEzLDIzMC44ODAyMjcgTDE4My41MDc1NDgsMTIyLjY3MjQzMiBDMTg2LjExMTg2NywxMTcuNzg2NDI5IDE4Ni4xMTE4NjcsMTExLjkyNDMxOCAxODMuNTA3NTQ4LDEwNy4wMzgzMTQgTDEyNi4xNDE0MTMsMCBMMTM2Ljk3NDUwMywwIEwxOTcuMTcyMDEzLDEwNi41NDU5MDEgQzIwMC4wNzQ1MDcsMTExLjY2NzMzOSAyMDAuMDUxMDk0LDExNy45NDIxMDYgMTk3LjExMDQ2MiwxMjMuMDQxNzQyIEMxODQuMTU0NzcyLDE0NS41NTg0NjEgMTcxLjI5MDM3MywxNjguMTI3NTg0IDE1OC41MTc1NzksMTkwLjc0ODU1NCBDMTQ2LjgyMjc2NiwyMTEuMzA2ODA0IDE1MS44NzAwMDEsMjI0LjU0MDQwOCAxNzMuNTM2MTgxLDIzMC40NDkzNjYgTDE3My41MzYxODEsMjMwLjQ0OTM2NiBaIi8+CiAgICAgICAgPHBhdGggZmlsbD0idXJsKCNjZldvcmtlcnNMaW5lYXJHcmFkaWVudC02KSIgZD0iTTc5Ljk3NzY3NzgsMjMwLjgxODY3NiBDNzUuMDUzNTQ2MSwyMzAuODE4Njc2IDcwLjEyOTQxNDMsMjI5LjY0OTE5NSA2NS44MjA3OTksMjI3LjU1NjQzOSBMMTI1LjAzMzQ4MywxMjAuNzY0MzMxIEMxMjYuODgwMDMzLDExNy40NDA1NDIgMTI2Ljg4MDAzMywxMTMuMzc4MTM0IDEyNS4wMzM0ODMsMTEwLjA1NDM0NSBMNjUuODIwNzk5LDMuMzIzNzg4OTMgQzcwLjIyMjIzNTUsMS4xNDQzNDE0NyA3NS4wNjYyMDMsMC4wMDcwNjIxNDAxOSA3OS45Nzc2Nzc4LDAgTDEyNy45ODc5NjIsMCBMMTg3LjY5MzA2LDEwNy42NTM4MyBDMTkwLjM2NjExNiwxMTIuNDc4Njc3IDE5MC4zNjYxMTYsMTE4LjMzOTk5OCAxODcuNjkzMDYsMTIzLjE2NDg0NSBMMTI3Ljk4Nzk2MiwyMzAuODE4Njc2IEw3OS45Nzc2Nzc4LDIzMC44MTg2NzYgWiIvPgogICAgICAgIDxwYXRoIG9wYWNpdHk9IjAuNiIgZmlsbD0idXJsKCNjZldvcmtlcnNMaW5lYXJHcmFkaWVudC03KSIgZD0iTTE4My41MDc1NDgsMTEwLjA1NDM0NSBMMTIyLjQ0ODMxNCwwIEwxMjcuOTg3OTYyLDAgTDE4Ny42OTMwNiwxMDcuNjUzODMgQzE5MC4zNjYxMTYsMTEyLjQ3ODY3NyAxOTAuMzY2MTE2LDExOC4zMzk5OTggMTg3LjY5MzA2LDEyMy4xNjQ4NDUgTDEyNy45ODc5NjIsMjMwLjgxODY3NiBMMTIyLjQ0ODMxNCwyMzAuODE4Njc2IEwxODMuNTA3NTQ4LDEyMC43NjQzMzEgQzE4NS4zNTQwOTcsMTE3LjQ0MDU0MiAxODUuMzU0MDk3LDExMy4zNzgxMzQgMTgzLjUwNzU0OCwxMTAuMDU0MzQ1IFoiLz4KICAgICAgICA8cGF0aCBvcGFjaXR5PSIwLjYiIGZpbGw9InVybCgjY2ZXb3JrZXJzTGluZWFyR3JhZGllbnQtOCkiIGQ9Ik0xMjUuMDMzNDgzLDExMC4wNTQzNDUgTDY1LjgyMDc5OSwzLjMyMzc4ODkzIEM2Ny42NjczNDg1LDIuMzM4OTYyNTggNjkuODgzMjA3NywxLjYwMDM0MjgyIDcxLjk3NTk2MzcsMC45ODQ4MjYzNSBDODUuMDI0OTEyOSwyNC40MzYwMDM4IDEwNC4yOTA1NzgsNjAuMDEyODU1NyAxMjkuODM0NTEyLDEwNy42NTM4MyBDMTMyLjUwNzU2OCwxMTIuNDc4Njc3IDEzMi41MDc1NjgsMTE4LjMzOTk5OCAxMjkuODM0NTEyLDEyMy4xNjQ4NDUgTDcxLjA1MjY4OSwyMjkuNTg3NjQzIEM2OC45NTk5MzMsMjI4Ljk3MjEyNiA2Ny44NTIwMDM0LDIyOC41NDEyNjUgNjUuODgyMzUwNywyMjcuNjE3OTkgTDEyNC45NzE5MzIsMTIwLjgyNTg4MyBDMTI2LjgxODQ4MSwxMTcuNTAyMDk0IDEyNi44MTg0ODEsMTEzLjQzOTY4NSAxMjQuOTcxOTMyLDExMC4xMTU4OTYgTDEyNS4wMzM0ODMsMTEwLjA1NDM0NSBaIi8+CiAgICA8L2c+Cjwvc3ZnPg==;container=0;" parent="11" vertex="1">
                    <mxGeometry x="13.998417174223619" width="73" height="65.86961425671103" as="geometry"/>
                </mxCell>
                <mxCell id="6" value="RPC&lt;br&gt;バックエンド" style="text;html=1;align=center;verticalAlign=middle;resizable=0;points=[];autosize=1;strokeColor=none;fillColor=none;container=0;" parent="11" vertex="1">
                    <mxGeometry y="65.87" width="100" height="40" as="geometry"/>
                </mxCell>
                <mxCell id="12" value="" style="group" parent="1" vertex="1" connectable="0">
                    <mxGeometry x="363" y="150" width="100" height="70" as="geometry"/>
                </mxCell>
                <mxCell id="8" value="" style="shape=image;imageAspect=0;aspect=fixed;verticalLabelPosition=bottom;verticalAlign=top;image=data:image/svg+xml,PHN2ZyB4bWxuczp4bGluaz0iaHR0cDovL3d3dy53My5vcmcvMTk5OS94bGluayIgeG1sbnM9Imh0dHA6Ly93d3cudzMub3JnLzIwMDAvc3ZnIiBwcmVzZXJ2ZUFzcGVjdFJhdGlvPSJ4TWlkWU1pZCIgdmVyc2lvbj0iMS4xIiB2aWV3Qm94PSIxLjQyMTA4NTQ3MTUyMDIwMDRlLTE0IDAuMDAwMDAzMzM3ODYwMTA3NDIxODc1IDUxMS43Nzg5OTE2OTkyMTg3NSAyMjcuMTM4MTIyNTU4NTkzNzUiIGhlaWdodD0iMjI3LjEzODEyMjU1ODU5Mzc1IiB3aWR0aD0iNTExLjc3ODk5MTY5OTIxODc1Ij4KICAgIDxkZWZzPgogICAgICAgIDxsaW5lYXJHcmFkaWVudCBpZD0ibGluZWFyR3JhZGllbnQtMSIgeTI9Ijk0LjQzODc1MTYlIiB4Mj0iNTcuNjYxNTU4NCUiIHkxPSIyLjA0NjQ0Njc2JSIgeDE9IjU3LjY2MTU2MjclIj4KICAgICAgICAgICAgPHN0b3Agb2Zmc2V0PSIwJSIgc3RvcC1jb2xvcj0iIzk3RDlGNiIvPgogICAgICAgICAgICA8c3RvcCBvZmZzZXQ9IjkyLjAyNDQ5OSUiIHN0b3AtY29sb3I9IiMwRjgwQ0MiLz4KICAgICAgICAgICAgPHN0b3Agb2Zmc2V0PSIxMDAlIiBzdG9wLWNvbG9yPSIjMEY4MENDIi8+CiAgICAgICAgPC9saW5lYXJHcmFkaWVudD4KPC9kZWZzPgoJPGc+CgkJPHBhdGggZmlsbD0iIzAwM0I1NyIgZD0iTTE5NC41MTkzMzcsMTEyLjA0NDIwNiBDMTg3LjY5ODU2NCwxMTIuMDQ0MjA2IDE4Mi4xNTI0ODYsMTE0LjA2MzIxMSAxNzcuOTAwNTUyLDExOC4wOTk0NTUgQzE3My42NDg2MTksMTIyLjEzOTIzNCAxNzEuNDkxNzEzLDEyNy40MzQ0NTIgMTcxLjQ5MTcxMywxMzMuOTIyNjY2IEMxNzEuNDkxNzEzLDEzNy4yODUxNDggMTcyLjAyNzQwMywxNDAuMzUwOTUzIDE3My4wODI4NzMsMTQzLjE2MDIzNSBDMTc0LjEzODM0MywxNDUuOTc1MTc0IDE3NS43ODA3NzMsMTQ4LjU4MjkwOSAxNzcuOTg4OTUsMTUwLjkzOTI0MSBDMTgwLjE5NzEyNywxNTMuMjk3Njk0IDE4NC42MTcwMTcsMTU2LjUwMTQxMyAxOTEuMjA0NDIsMTYwLjU3NDYgQzE5OS4yODc1MTQsMTY1LjUwOTEzNCAyMDQuNTc3MjM4LDE2OS41MTM5MDggMjA3LjExNjAyMiwxNzIuNjQwODg0IEMyMDkuNjU2NTc1LDE3NS43NjUyMTUgMjEwLjkxNzEyNywxNzkuMDM5NDcgMjEwLjkxNzEyNywxODIuNDUzMDM5IEMyMTAuOTE3MTI3LDE4Ny4wMjM1NTggMjA5LjQxMjU5NywxOTAuNjcxOTEyIDIwNi4zMjA0NDIsMTkzLjQxNDM2NSBDMjAzLjIyMjk4MywxOTYuMTU4MDYyIDE5OS4wODA2NjMsMTk3LjUyNDg2MiAxOTMuOTQ0NzUxLDE5Ny41MjQ4NjIgQzE4OC41Mjc3MzUsMTk3LjUyNDg2MiAxODMuODA5MDYxLDE5NS42MTUzIDE3OS43NTY5MDYsMTkxLjgyMzIwNCBDMTc1LjcwNDc1MSwxODguMDI1NjM1IDE3My42NTkyMjcsMTgzLjAwMjcwMyAxNzMuNjEzMjYsMTc2LjcwNzE4MiBMMTcxLjA5MzkyMywxNzYuNzA3MTgyIEwxNzEuMDkzOTIzLDE5OS41NTgwMTEgTDE3My42MTMyNiwxOTkuNTU4MDExIEMxNzQuMzgyMzIsMTk3LjM5NDIwMyAxNzUuNDQ2NjMsMTk2LjI4NzI5MyAxNzYuODM5Nzc5LDE5Ni4yODcyOTMgQzE3Ny41MDk4MzQsMTk2LjI4NzI5MyAxNzkuMDc5Nzc5LDE5Ni43NDk0MzYgMTgxLjUyNDg2MiwxOTcuNjEzMjYgQzE4Ny40NzQwMzMsMTk5LjczMDAyNiAxOTIuMzU4ODk1LDIwMC43NTEzODEgMTk2LjE5ODg5NSwyMDAuNzUxMzgxIEMyMDIuODE2MzU0LDIwMC43NTEzODEgMjA4LjQ2NDk3MiwxOTguNDMzNzc1IDIxMy4xNzEyNzEsMTkzLjcyMzc1NyBDMjE3Ljg3MDQ5NywxODkuMDE1ODc0IDIyMC4yNDMwOTQsMTgzLjMzNzAxNyAyMjAuMjQzMDk0LDE3Ni43MDcxODIgQzIyMC4yNDMwOTQsMTcxLjU2NjMyIDIxOC42NzY2ODUsMTY2Ljk5MjQzNSAyMTUuNjAyMjEsMTYzLjAwNTUzOSBDMjEyLjUyNzczNSwxNTkuMDEzODQ4IDIwNi41NDg1MDgsMTU0LjM3MDgyOSAxOTcuNjEzMjYsMTQ5LjAzODY4OCBDMTg5LjkyNDQyLDE0NC40MTkxNzUgMTg0LjkzMzQ4MSwxNDAuNjU2ODEgMTgyLjYyOTgzNCwxMzcuNzIzNzcxIEMxODAuMzIyNjUyLDEzNC43OTQ5NjEgMTc5LjEzODEyMiwxMzEuNTU1MjA0IDE3OS4xMzgxMjIsMTI4LjAwMDAxNCBDMTc5LjEzODEyMiwxMjQuMTU0NzAzIDE4MC41NTA3MTgsMTIxLjA2NjA4NCAxODMuMzM3MDE3LDExOC43NjI0MzggQzE4Ni4xMjMzMTUsMTE2LjQ1NzAyNCAxODkuNzc0MTQ0LDExNS4zMTQ5MjQgMTk0LjM0MjU0MSwxMTUuMzE0OTI0IEMxOTkuNDgzNzU3LDExNS4zMTQ5MjQgMjAzLjc2OTI4MiwxMTYuODQwNjcgMjA3LjE2MDIyMSwxMTkuOTExNjA5IEMyMTAuNTQ3NjI0LDEyMi45ODc4NTIgMjEyLjUwNjUxOSwxMjcuMjUwNzQ3IDIxMy4wODI4NzMsMTMyLjcyOTI5NiBMMjE1LjYwMjIxLDEzMi43MjkyOTYgTDIxNS42MDIyMSwxMTIuOTI4MTg0IEwyMTMuMjU5NjY5LDExMi45MjgxODQgQzIxMi45NzMyNiwxMTMuOTM3Njg3IDIxMi43MDgwNjYsMTE0LjU4Mjk5IDIxMi40NjQwODgsMTE0Ljg3MjkzNSBDMjEyLjIyNzE4MiwxMTUuMTYxMTEyIDIxMS43NzEwNSwxMTUuMzE0OTI0IDIxMS4wOTM5MjMsMTE1LjMxNDkyNCBDMjEwLjI3ODg5NSwxMTUuMzE0OTI0IDIwOC44MjU2MzUsMTE0Ljk3MTk0MSAyMDYuNzYyNDMxLDExNC4yOTgzNSBDMjAyLjM0MjU0MSwxMTIuODA5NzMxIDE5OC4yNjc0MDMsMTEyLjA0NDIwNiAxOTQuNTE5MzM3LDExMi4wNDQyMDYgTDE5NC41MTkzMzcsMTEyLjA0NDIwNiBaIE0yNzYuODYxODc4LDExMi4wNDQyMDYgQzI2OC41NTA3MTgsMTEyLjA0NDIwNiAyNjEuMDA1MDgzLDExNC4wMDMxMDEgMjU0LjE4Nzg0NSwxMTcuOTIyNjU5IEMyNDcuMzYsMTIxLjgzNTE0NSAyNDEuOTU1MzU5LDEyNy4yNjgwNzMgMjM3Ljk2Njg1MSwxMzQuMTg3ODU5IEMyMzMuOTgwMTEsMTQxLjEwNzEwMSAyMzIsMTQ4LjQ1NTc3MiAyMzIsMTU2LjI4NzMwNyBDMjMyLDE2Ni44MDg3NTEgMjM1LjQ0Mzk3OCwxNzYuMTgyMjY5IDI0Mi4zODY3NCwxODQuMzk3NzkgQzI0OS4zMzMwMzksMTkyLjYwODM2MSAyNTcuNjU2NTc1LDE5Ny43MjQ0NzEgMjY3LjMxNDkxNywxOTkuNjkwNjA4IEMyNjkuNTIzMDk0LDIwMC44NDExOTMgMjcyLjY4MjQzMSwyMDMuODExMzU5IDI3Ni44MTc2OCwyMDguNjE4Nzg1IEMyODEuNDc4MDExLDIxNC4wNDQxMDMgMjg1LjQyMDU1MiwyMTcuOTU3MTI3IDI4OC42NjI5ODMsMjIwLjI4NzI5MyBDMjkxLjkwMTg3OCwyMjIuNjE4Njg5IDI5NS4zOTg4OTUsMjI0LjMyNzQyNSAyOTkuMDkzOTIzLDIyNS40NTg1NjQgQzMwMi43OTI0ODYsMjI2LjU4NDkzNSAzMDYuNzkxNjAyLDIyNy4xMzgxMjIgMzExLjExNjAyMiwyMjcuMTM4MTIyIEMzMTYuMzUyNzA3LDIyNy4xMzgxMjIgMzIxLjA0MTMyNiwyMjYuMjI3OTc4IDMyNS4xNzEyNzEsMjI0LjM1MzU5MSBMMzI0LjI0MzA5NCwyMjIuMDU1MjQ5IEMzMjEuODQ1NzQ2LDIyMi45MTk5NjMgMzE5LjI4OTI4MiwyMjMuMzM3MDE3IDMxNi41OTY2ODUsMjIzLjMzNzAxNyBDMzEyLjk0MjMyLDIyMy4zMzcwMTcgMzA5LjI0OTA2MSwyMjIuMTMxOTc4IDMwNS41NDY5NjEsMjE5LjcxMjcwNyBDMzAxLjg1MDE2NiwyMTcuMjg3NDI1IDI5Ny4yMjY5NjEsMjEyLjY2MDE2MiAyOTEuNzEyNzA3LDIwNS44MzQyNTQgQzI4OS4xMjA4ODQsMjAyLjU2MzUzNiAyODcuMzMxNzEzLDIwMC40OTk5NzggMjg2LjMyMDQ0MiwxOTkuNjkwNjA4IEMyOTYuODg3NTE0LDE5Ny42MjcwNSAzMDUuNTc3MDE3LDE5Mi41MDU2MzUgMzEyLjM1MzU5MSwxODQuMzA5MzkyIEMzMTkuMTI4Mzk4LDE3Ni4xMTY2ODUgMzIyLjUxOTMzNywxNjYuNzY2NTE4IDMyMi41MTkzMzcsMTU2LjI4NzMwNyBDMzIyLjUxOTMzNywxNDMuODQ0NTkgMzE4LjA5MjM3NiwxMzMuMzg3NDk5IDMwOS4zMDM4NjcsMTI0Ljg2MTg4NiBDMzAwLjUwODI4NywxMTYuMzM1Mzg4IDI4OS42OTE5MzQsMTEyLjA0NDIwNiAyNzYuODYxODc4LDExMi4wNDQyMDYgTDI3Ni44NjE4NzgsMTEyLjA0NDIwNiBaIE0zMjguMjY1MTkzLDExMi4wNDQyMDYgTDMyOC4zOTc3MTksMTE0Ljc0MDMzOSBDMzMzLjkzMTQyMSwxMTQuNzQwMzM5IDMzNy4wMzA2NDgsMTE2LjM3MDM5NCAzMzcuNzIzNjg2LDExOS42NDY0MTYgQzMzNy45ODE4MDgsMTIwLjgxODU3MSAzMzguMTAwMjYxLDEyMi45ODI5MDIgMzM4LjEyMTQ3NiwxMjYuMDk5NDU1IEwzMzguMDc3MzQ4LDE4NS43MjM3NTcgQzMzOC4wMzEzODEsMTkwLjE3Njg4NCAzMzcuMzk2Njg1LDE5My4wMjAxMSAzMzYuMTc2Nzk2LDE5NC4yNTQxNDQgQzMzNC45NTUxMzgsMTk1LjQ3OTMzNyAzMzIuODkwMTY2LDE5Ni4yNDY2MyAzMjkuOTAwNTUyLDE5Ni41NTI0ODYgTDMyOS43NjgwMjcsMTk5LjI0ODYxOSBMMzg0LjkyODI0OCwxOTkuMjQ4NjE5IEwzODYuMzQyNjEyLDE4NS43MjM3NTcgTDM4My44MjMyNzUsMTg1LjcyMzc1NyBDMzgzLjEwMzcxNywxODkuNDA4MTc3IDM4MS40NTQyMTQsMTkyLjA0NzU2NSAzNzguODI4OCwxOTMuNTQ2OTYxIEMzNzYuMTk2MzE0LDE5NS4wNTczMTkgMzcxLjU0MTI4NiwxOTUuODAxMTA1IDM2NC44MTc3NSwxOTUuODAxMTA1IEwzNTkuNjAyMjgxLDE5NS44MDExMDUgQzM1My41NTIzMzYsMTk1LjgwMTEwNSAzNTAuMDUxNzgzLDE5My42MTM5NiAzNDkuMTI3MTQzLDE4OS4yMTU0NyBDMzQ4LjkzNjIwMywxODguMzQ1MjgyIDM0OC44NzA3ODksMTg3LjQxMjMyNCAzNDguODYxOTQ5LDE4Ni4zODY3NCBMMzQ5LjA4Mjk0NCwxMjYuMDk5NDU1IEMzNDkuMDgxNTI5LDEyMS42NTMzOTkgMzQ5LjY0MzM4NiwxMTguNjc0MDQgMzUwLjgwNjcwMSwxMTcuMjE1NDc3IEMzNTEuOTgyMzkxLDExNS43NjIyMTcgMzU0LjEwMjE3LDExNC45NDg5NTcgMzU3LjE3MTM0MSwxMTQuNzQwMzM5IEwzNTcuMDM4ODE1LDExMi4wNDQyMDYgTDMyOC4yNjUzMzUsMTEyLjA0NDIwNiBMMzI4LjI2NTE5MywxMTIuMDQ0MjA2IFogTTI3Ny43NDU4NTYsMTE1LjMxNDkyNCBDMjg3LjExOTU1OCwxMTUuMzE0OTI0IDI5NC43NzMwMzksMTE5LjAwNjc3IDMwMC42ODUwODMsMTI2LjQ1MzA0NiBDMzA2LjU5NTM1OSwxMzMuOTAxOTg4IDMwOS41MjQ4NjIsMTQ0LjExMTIxMSAzMDkuNTI0ODYyLDE1Ny4wMzg2ODggQzMwOS41MjQ4NjIsMTY5LjI4ODY1NiAzMDYuNTUyOTI4LDE3OS4wOTcyODkgMzAwLjU5NjY4NSwxODYuNDc1MTM4IEMyOTQuNjQwNDQyLDE5My44NTA2OTYgMjg2LjcxMjkyOCwxOTcuNTI0ODYyIDI3Ni44NjE4NzgsMTk3LjUyNDg2MiBDMjY3LjM5ODAxMSwxOTcuNTI0ODYyIDI1OS43MjMzMTUsMTkzLjczNjEzMyAyNTMuODM0MjU0LDE4Ni4xMjE1NDcgQzI0Ny45NTA0OTcsMTc4LjUwNjk2MSAyNDUuMDM4Njc0LDE2OC42MjA5MDYgMjQ1LjAzODY3NCwxNTYuNDY0MTAzIEMyNDUuMDM4Njc0LDE0My45NzE3MjcgMjQ3Ljk4NTg1NiwxMzMuOTcxNjMxIDI1My45MjI2NTIsMTI2LjQ5NzI0NSBDMjU5Ljg1NTkxMiwxMTkuMDMwODE0IDI2Ny44MDExMDUsMTE1LjMxNDkyNCAyNzcuNzQ1ODU2LDExNS4zMTQ5MjQgTDI3Ny43NDU4NTYsMTE1LjMxNDkyNCBaIE00MDQuNTk2Njg1LDEyOC4xMzI2MTEgQzQwMy4yNTEyNzEsMTI4LjEzMjYxMSA0MDIuMjI1ODU2LDEyOC41ODY5NzUgNDAxLjQ1ODU2NCwxMjkuNTAyNzc3IEM0MDAuNjczNTkxLDEzMC40MTUwMjggNDAwLjQzMzE0OSwxMzEuNTIgNDAwLjcwNzE4MiwxMzIuODYxODkzIEM0MDAuOTcyMzc2LDEzNC4xNjM2MzEgNDAxLjcwNjA3NywxMzUuMzA0NSA0MDIuODcyOTI4LDEzNi4yNjUyMDggQzQwNC4wMzI3MDcsMTM3LjIyNTAxIDQwNS4yODQ0MiwxMzcuNzIzNzcxIDQwNi42Mjk4MzQsMTM3LjcyMzc3MSBDNDA3LjkzMTA1LDEzNy43MjM3NzEgNDA4LjkyMjg3MywxMzcuMjI1MDM4IDQwOS42MzUzNTksMTM2LjI2NTIwOCBDNDEwLjM0Nzg0NSwxMzUuMzA0NSA0MTAuNTY1MzA0LDEzNC4xNjM2MzEgNDEwLjI5ODM0MywxMzIuODYxODkzIEM0MTAuMDI0MzA5LDEzMS41MiA0MDkuMzE1MzU5LDEzMC40MTUwMjggNDA4LjIyMDk5NCwxMjkuNTAyNzc3IEM0MDcuMTE0MjU0LDEyOC41ODY5NzUgNDA1Ljg5NzkwMSwxMjguMTMyNjExIDQwNC41OTY2ODUsMTI4LjEzMjYxMSBMNDA0LjU5NjY4NSwxMjguMTMyNjExIFogTTQ0MC45NzIzNzYsMTM3LjI4MTc4MiBDNDM4LjY4NjQwOSwxNDYuMDc1OTM0IDQzMy43MzA4MjksMTUwLjgzNDkxNyA0MjYuMTIxNTQ3LDE1MS42MDIyMjQgTDQyNi4yMDk5NDUsMTU0LjEyMTU2MSBMNDM1LjA5MzkyMywxNTQuMTIxNTYxIEw0MzQuOTE3MTI3LDE4My45MTE2MDIgQzQzNC45MzEyNzEsMTg5LjAwNDcyOSA0MzUuMDg2ODUxLDE5Mi4zOTU2NjkgNDM1LjQ0NzUxNCwxOTQuMTIxNTQ3IEM0MzYuMzIyNjUyLDE5OC4yNTM0NDQgNDM5LjAyMDU1MiwyMDAuMzUzNTkxIDQ0My41MzU5MTIsMjAwLjM1MzU5MSBDNDUwLjA2ODUwOCwyMDAuMzUzNTkxIDQ1Ni45MjExMDUsMTk2LjM3NDI3NiA0NjQuMDg4Mzk4LDE4OC40MTk4OSBMNDYxLjkyMjY1MiwxODYuNTYzNTM2IEM0NTYuNzQ3ODQ1LDE5MS44MDE4MTkgNDUyLjE3MjM3NiwxOTQuNDMwOTM5IDQ0OC4xNzY3OTYsMTk0LjQzMDkzOSBDNDQ1LjcyMTEwNSwxOTQuNDMwOTM5IDQ0NC4xOTg4OTUsMTkzLjAxODY5NiA0NDMuNjI0MzA5LDE5MC4yMzIwNDQgQzQ0My40NjY5NjEsMTg5LjU1NTI3MSA0NDMuNDAzMzE1LDE4OC43NjQ0NzEgNDQzLjQwMzMxNSwxODcuODQ1MzA0IEw0NDMuNDkxNzEzLDE1NC4xMjE1NjEgTDQ1Ny4wNjA3NzMsMTU0LjEyMTU2MSBMNDU2LjkyODI0OCwxNTAuMDk5NDYyIEw0NDMuNTM1OTgyLDE1MC4wOTk0NjIgTDQ0My41MzU5ODIsMTM3LjI4MTc4MiBMNDQwLjk3MjQ0NiwxMzcuMjgxNzgyIEw0NDAuOTcyMzc2LDEzNy4yODE3ODIgWiBNNDkzLjQzNjQ2NCwxNDguNTA4MzAxIEM0ODUuODQ2NjMsMTQ4LjUwODMwMSA0NzkuNjcyOTI4LDE1Mi4xOTI3MjEgNDc0Ljg3MjkyOCwxNTkuNTEzODI2IEM0NzAuMDk3NjgsMTY2Ljg0NzMwNyA0NjguNjE5NjY5LDE3NC45NzIyOCA0NzAuNDk3MjM4LDE4My45MTE2MDIgQzQ3MS42MDIyMSwxODkuMTQ3NzUgNDczLjgwMzMxNSwxOTMuMjA1OTMgNDc3LjE3MTI3MSwxOTYuMDY2Mjk4IEM0ODAuNTMzOTIzLDE5OC45MjU0MzYgNDg0LjgsMjAwLjM1MzU5MSA0ODkuOTAwNTUyLDIwMC4zNTM1OTEgQzQ5NC42NDkyODIsMjAwLjM1MzU5MSA1MDEuMjYxNDM2LDE5OS4xNTEyMTEgNTA0LjA0NDE5OSwxOTYuNzI5MjgyIEM1MDYuODM0MDMzLDE5NC4zMDg3NjYgNTA5LjQwNDY0MSwxOTAuMzg3NDQgNTExLjc3OTAwNiwxODUuMDE2NTc1IEw1MDkuODc4NDUzLDE4My4wMjc2MjQgQzUwNi4wOTE0OTIsMTg5Ljk5NTEzOCA0OTguNDQ4NjE5LDE5My41MDI3NjIgNDkyLjY4NTA4MywxOTMuNTAyNzYyIEM0ODQuNzYxMTA1LDE5My41MDI3NjIgNDc5LjkwODA2NiwxODkuMTU1MzU5IDQ3OC4wOTk0NDgsMTgwLjUwODI4NyBDNDc3Ljg2NDMwOSwxNzkuNDA0NTQ1IDQ3Ny42ODkyODIsMTc4LjIxODc4NSA0NzcuNTY5MDYxLDE3Ni45NzIzNzYgQzQ4Ni45OTU4MDEsMTc1LjQ3OTg2NyA0OTQuMTQwMTEsMTcyLjgzNjk0MyA0OTguOTYxMzI2LDE2OS4wMTY1NzUgQzUwMy43NzkwMDYsMTY1LjE5NDA5OSA1MDguNjE2MTMzLDE2MS4xNDIyODMgNTA3LjcxMjcwNywxNTYuODYxODkzIEM1MDcuMTc1MjQ5LDE1NC4zMTgzMjggNTA1Ljg1NDU4NiwxNTIuMzE4NDE2IDUwMy44MjMyMDQsMTUwLjgwNjY0NCBDNTAxLjc2NTMwNCwxNDkuMjk1NTc5IDQ5Ni40MjI1NDEsMTQ4LjUwODMwMSA0OTMuNDM2NDY0LDE0OC41MDgzMDEgTDQ5My40MzY0NjQsMTQ4LjUwODMwMSBaIE00MTAuNDc1MTM4LDE0OC44MTc2OTQgTDM5NC4xMjE1NDcsMTUyLjU3NDYgTDM5NC4xMjE1NDcsMTU1LjQ5MTcyNyBMMzk5Ljc3OTAwNiwxNTQuNzg0NTQ1IEM0MDIuNTE5MzM3LDE1NC43ODQ1NDUgNDA0LjEzMTcxMywxNTYuMDI1NDggNDA0LjY0MDg4NCwxNTguNDk3MjUyIEM0MDQuODEyMzc2LDE1OS4zMjQ0ODUgNDA0LjkyMDIyMSwxNjAuNDg2MjAyIDQwNC45NTAyNzYsMTYxLjk0NDc2NiBMNDA0Ljc3MzQ4MSwxODguNjg1MDgzIEM0MDQuNzI3NTE0LDE5Mi4zODU0MTQgNDA0LjMxNzM0OCwxOTQuNTM2NDc5IDQwMy40OTE3MTMsMTk1LjE4MjMyIEM0MDIuNjU5MDA2LDE5NS44MjkzOTIgNDAwLjQ2MzIwNCwxOTYuMTU0Njk2IDM5Ni45MDYwNzcsMTk2LjE1NDY5NiBMMzk2LjgxNzY4LDE5OC42NzQwMzMgTDQyMi43NjI0MzEsMTk4LjY3NDAzMyBMNDIyLjcxODMwMywxOTYuMTU0Njk2IEM0MTkuMTEzNDQxLDE5Ni4xNTQ2OTYgNDE2Ljc3NjIwMywxOTUuODcwMjM5IDQxNS43MzQ4NzcsMTk1LjMxNDkxNyBDNDE0LjcxMTIzMSwxOTQuNzYzMTQ1IDQxNC4wMDU4MTcsMTkzLjc1ODk0NiA0MTMuNzAxNzI4LDE5Mi4yMjA5OTQgQzQxMy40NjY1OSwxOTEuMTEyNjU2IDQxMy4zNjQwNDksMTg5LjIwMjkyNCA0MTMuMzQ4MTM3LDE4Ni41NjM1MzYgTDQxMy40MzY1MzUsMTQ4LjgxNzY5NCBMNDEwLjQ3NTIwOSwxNDguODE3Njk0IEw0MTAuNDc1MTM4LDE0OC44MTc2OTQgWiBNNDg5LjI4MTc2OCwxNTMuNzY3OTcgQzQ5MC44NjA1NTIsMTUzLjc2Nzk3IDQ5Mi4zODYyOTgsMTU0LjM3NzczMSA0OTMuOTIyNjUyLDE1NS41ODAxMjUgQzQ5NS40Mzc3OSwxNTYuNzc4Mjc1IDQ5Ni4zNjA2NjMsMTU4LjExMDU5MyA0OTYuNjYyOTgzLDE1OS41NTgwMjUgQzQ5OC4xNDI3NjIsMTY2LjY2NzE1OSA0OTEuODQsMTcxLjU4MjA0OCA0NzcuNjU3NDU5LDE3NC4zMjA0NDIgQzQ3Ny4yNTI1OTcsMTY5LjEzNjYyNiA0NzguMTUwNzE4LDE2NC40MzA4NjUgNDgwLjQ0MTk4OSwxNjAuMTc2ODEgQzQ4Mi43MTU1OCwxNTUuOTI2ODE0IDQ4NS42NzY5MDYsMTUzLjc2Nzk3IDQ4OS4yODE3NjgsMTUzLjc2Nzk3IEw0ODkuMjgxNzY4LDE1My43Njc5NyBaIi8+CgkJPHBhdGggZmlsbD0iIzBGODBDQyIgZD0iTTE1Ny44ODc2NDYsOS45NTE3OTQ5MiBMMTcuMTQ5ODc4NSw5Ljk1MTc5NDkyIEM3LjcxNzQ4MDY2LDkuOTUxNzk0OTIgMS40MjEwODU0N2UtMTQsMTcuNjcwNjg5OSAxLjQyMTA4NTQ3ZS0xNCwyNy4xMDI3MzQxIEwxLjQyMTA4NTQ3ZS0xNCwxODIuMzEwMTYgQzEuNDIxMDg1NDdlLTE0LDE5MS43NDE2NjYgNy43MTc0ODA2NiwxOTkuNDU5MzMxIDE3LjE0OTg3ODUsMTk5LjQ1OTMzMSBMMTA5Ljg0MzQ0OCwxOTkuNDU5MzMxIEMxMDguNzkxMzUsMTUzLjMzODAxNyAxMjQuNTQxMTcsNjMuODMwODQ0OCAxNTcuODg3NjQ2LDkuOTUxNzk0OTIgTDE1Ny44ODc2NDYsOS45NTE3OTQ5MiBaIi8+CgkJPHBhdGggZmlsbD0idXJsKCNsaW5lYXJHcmFkaWVudC0xKSIgZD0iTTE1Mi43NzQ3MTgsMTQuOTU1MTA5OCBMMTcuMTQ5ODc4NSwxNC45NTUxMDk4IEMxMC40NTIzMzE1LDE0Ljk1NTEwOTggNS4wMDIwNzczNSwyMC40MDM5NDk2IDUuMDAyMDc3MzUsMjcuMTAyNzM0MSBMNS4wMDIwNzczNSwxNzAuOTg2MjMzIEMzNS43MTgxODc4LDE1OS4xOTc1MDQgODEuODE5MzQ2NywxNDkuMDI1NTM1IDExMy42OTU0MTMsMTQ5LjQ4NzUwOSBDMTIwLjEwMDk3MSwxMTUuOTk0MDc5IDEzOC45MjY4NDQsNTAuMzU0MDkxMSAxNTIuNzc0NzE4LDE0Ljk1NTEwOTggTDE1Mi43NzQ3MTgsMTQuOTU1MTA5OCBaIi8+CgkJPHBhdGggZmlsbD0iIzAwM0I1NyIgZD0iTTE5MC43MTUwNSw0Ljg3MjQ1NzkgQzE4MS4wNzYxNTUsLTMuNzIzMzQzMiAxNjkuNDA1ODc4LC0wLjI3MDUyNTUyNSAxNTcuODg3NjQ2LDkuOTUxNzk0OTIgQzE1Ni4xNzgwMzMsMTEuNDcwNDY5IDE1NC40NzE5NTYsMTMuMTU1MzMwOCAxNTIuNzc0NzE4LDE0Ljk1NTEwOTggQzEzMy4wNzA4NTEsMzUuODU3NjUxMyAxMTQuNzgxMzQ4LDc0LjU3NTg4MzMgMTA5LjA5OTEzOCwxMDQuMTQ0OTQ0IEMxMTEuMzEyNjE5LDEwOC42MzM3ODQgMTEzLjA0MTY4LDExNC4zNjE5NjEgMTE0LjE4MDI0MywxMTguNzM3NjUxIEMxMTQuNDcxOTU2LDExOS44NjAzMDMgMTE0LjczNTM4MSwxMjAuOTE0MDA1IDExNC45NDU3NjgsMTIxLjgxMDM1OCBDMTE1LjQ0NjA5OSwxMjMuOTMxNzI5IDExNS43MTQ4MjksMTI1LjMwNzM3NSAxMTUuNzE0ODI5LDEyNS4zMDczNzUgQzExNS43MTQ4MjksMTI1LjMwNzM3NSAxMTUuNTM4MDMzLDEyNC42Mzg5MTEgMTE0LjgxMzE3MSwxMjIuNTM2OTg4IEMxMTQuNjc1MjcxLDEyMi4xMzM4OTQgMTE0LjUyMTQ1OSwxMjEuNjkzNjczIDExNC4zMzkzNTksMTIxLjE3NTY2MiBDMTE0LjI2MTU2OSwxMjAuOTYxNzQgMTE0LjE1MzcyNCwxMjAuNzAxODUgMTE0LjAzNTI3MSwxMjAuNDI0MjgxIEMxMTIuNzQ5OTY3LDExNy40MzY0MzYgMTA5LjE5NDYwOCwxMTEuMTMwMTM3IDEwNy42Mjk5NjcsMTA4LjM4NDUwMiBDMTA2LjI5MTYyNCwxMTIuMzMyMzQ3IDEwNS4xMDg4NjIsMTE2LjAyNTYwNyAxMDQuMTE4ODA3LDExOS4zNjcwNDQgQzEwOC42MzU5MzQsMTI3LjYzMTg4MyAxMTEuMzg4NjQxLDE0MS43OTU2ODQgMTExLjM4ODY0MSwxNDEuNzk1Njg0IEMxMTEuMzg4NjQxLDE0MS43OTU2ODQgMTExLjE0OTk2NywxNDAuODc3NzYyIDExMC4wMTQ5MzksMTM3LjY3NDA1NiBDMTA5LjAwNzIwNCwxMzQuODQwNTQ2IDEwMy45ODc5NzgsMTI2LjA0NjM4MSAxMDIuNzk5MDI4LDEyMy45OTA0MjUgQzEwMC43NjUxNzEsMTMxLjQ5ODU4NyA5OS45NTcwMzg3LDEzNi41Njc2NjkgMTAwLjY4NTc5LDEzNy44MDE4NzIgQzEwMi4xMDA2ODUsMTQwLjE5MzM5MyAxMDMuNDQ4MjIxLDE0NC4zMTk4MDIgMTA0LjYzMTUxNCwxNDguODgzMjUgQzEwNy4zMDQ2NjMsMTU5LjE2MzcyOSAxMDkuMTYyNzg1LDE3MS42Nzg5MTggMTA5LjE2Mjc4NSwxNzEuNjc4OTE4IEMxMDkuMTYyNzg1LDE3MS42Nzg5MTggMTA5LjIyMjg5NSwxNzIuNTA4MjU5IDEwOS4zMjM2NjksMTczLjc4NDU1MyBDMTA4Ljk1MjM5OCwxODIuNDE3ODM1IDEwOS4xNzUxNiwxOTEuMzY4ODExIDEwOS44NDM0NDgsMTk5LjQ1OTMzMSBDMTEwLjcyOTE5MywyMTAuMTY5MjUzIDExMi4zOTYzNzYsMjE5LjM2OTUyNiAxMTQuNTIxNDU5LDIyNC4yOTM0NTIgTDExNS45NjQxMSwyMjMuNTA2ODk2IEMxMTIuODQzNjY5LDIxMy44MDU5MzkgMTExLjU3NjA0NCwyMDEuMDkyNTY4IDExMi4xMzExODIsMTg2LjQzMDkxMSBDMTEyLjk3MDk2MSwxNjQuMDIwMTMzIDExOC4xMjgwODgsMTM2Ljk5Mzc0NyAxMjcuNjU3MzcsMTA4LjgyNDcyMyBDMTQzLjc1NjM3Niw2Ni4zMDE4NTAyIDE2Ni4wOTI3MjksMzIuMTgzODM5MSAxODYuNTM1NjAyLDE1Ljg5MDM1ODUgQzE2Ny45MDMxMTYsMzIuNzE3NzYxOCAxNDIuNjg0OTk0LDg3LjE4NjcxMiAxMzUuMTM1ODIzLDEwNy4zNTczMiBDMTI2LjY4MzIyNywxMjkuOTQ0NzIzIDEyMC42OTMzOTIsMTUxLjE0MDkyOSAxMTcuMDgzMjI3LDE3MS40NDg5IEMxMjMuMzExNzM1LDE1Mi40MTAzMjEgMTQzLjQ1MDUxOSwxNDQuMjI2NjI0IDE0My40NTA1MTksMTQ0LjIyNjYyNCBDMTQzLjQ1MDUxOSwxNDQuMjI2NjI0IDE1My4zMjgwODgsMTMyLjA0NDg4NSAxNjQuODcxMDcyLDExNC42NDEyOTggQzE1Ny45NTY1OTcsMTE2LjIxODMxNCAxNDYuNjAyNzg1LDExOC45MTc5ODMgMTQyLjc5OTkxMiwxMjAuNTE2MjE1IEMxMzcuMTkwMTg4LDEyMi44NjkzNjQgMTM1LjY3ODU4NiwxMjMuNjcyMDE2IDEzNS42Nzg1ODYsMTIzLjY3MjAxNiBDMTM1LjY3ODU4NiwxMjMuNjcyMDE2IDE1My44NDk2MzUsMTEyLjYwNjM4MSAxNjkuNDM5NDcsMTA3LjU5NTk5NCBDMTkwLjg3OTQ3LDczLjgyODAzOCAyMTQuMjM3NzAyLDI1Ljg1NjMyNTMgMTkwLjcxNTA1LDQuODcyNDU3OSIvPgoJPC9nPgo8L3N2Zz4=;" parent="12" vertex="1">
                    <mxGeometry x="5" width="90.22" height="40" as="geometry"/>
                </mxCell>
                <mxCell id="10" value="Cloudflare D1" style="text;html=1;align=center;verticalAlign=middle;resizable=0;points=[];autosize=1;strokeColor=none;fillColor=none;" parent="12" vertex="1">
                    <mxGeometry y="40" width="100" height="30" as="geometry"/>
                </mxCell>
                <mxCell id="13" style="edgeStyle=none;html=1;entryX=0.5;entryY=0;entryDx=0;entryDy=0;endArrow=none;endFill=0;startArrow=classic;startFill=1;" parent="1" source="10" target="5" edge="1">
                    <mxGeometry relative="1" as="geometry"/>
                </mxCell>
                <mxCell id="14" value="" style="group" parent="1" vertex="1" connectable="0">
                    <mxGeometry x="180.00158282577638" y="410" width="125" height="105.87" as="geometry"/>
                </mxCell>
                <mxCell id="15" value="" style="shape=image;imageAspect=0;aspect=fixed;verticalLabelPosition=bottom;verticalAlign=top;image=data:image/svg+xml,PHN2ZyB4bWxucz0iaHR0cDovL3d3dy53My5vcmcvMjAwMC9zdmciIHByZXNlcnZlQXNwZWN0UmF0aW89InhNaWRZTWlkIiB2ZXJzaW9uPSIxLjEiIHZpZXdCb3g9IjAgMCAyNTUuOTk5OTg0NzQxMjEwOTQgMjMwLjg4MDIzMzc2NDY0ODQ0IiBoZWlnaHQ9IjIzMC44ODAyMzM3NjQ2NDg0NCIgd2lkdGg9IjI1NS45OTk5ODQ3NDEyMTA5NCI+CiAgICA8dGl0bGU+Q2xvdWRGcmFtZSBXb3JrZXJzPC90aXRsZT4KICAgIDxkZWZzPgogICAgICAgIDxsaW5lYXJHcmFkaWVudCBpZD0iY2ZXb3JrZXJzTGluZWFyR3JhZGllbnQtMSIgeTI9IjguNyUiIHgyPSIyNS43JSIgeTE9IjEwMCUiIHgxPSI1MCUiPgogICAgICAgICAgICA8c3RvcCBvZmZzZXQ9IjAlIiBzdG9wLWNvbG9yPSIjRUI2RjA3Ii8+CiAgICAgICAgICAgIDxzdG9wIG9mZnNldD0iMTAwJSIgc3RvcC1jb2xvcj0iI0ZBQjc0MyIvPgogICAgICAgIDwvbGluZWFyR3JhZGllbnQ+CiAgICAgICAgPGxpbmVhckdyYWRpZW50IGlkPSJjZldvcmtlcnNMaW5lYXJHcmFkaWVudC0yIiB5Mj0iMjkuNSUiIHgyPSI0MC41JSIgeTE9IjgzLjclIiB4MT0iODElIj4KICAgICAgICAgICAgPHN0b3Agb2Zmc2V0PSIwJSIgc3RvcC1jb2xvcj0iI0Q5NjUwNCIvPgogICAgICAgICAgICA8c3RvcCBvZmZzZXQ9IjEwMCUiIHN0b3Atb3BhY2l0eT0iMCIgc3RvcC1jb2xvcj0iI0Q5NjUwNCIvPgogICAgICAgIDwvbGluZWFyR3JhZGllbnQ+CiAgICAgICAgPGxpbmVhckdyYWRpZW50IGlkPSJjZldvcmtlcnNMaW5lYXJHcmFkaWVudC0zIiB5Mj0iNzkuOSUiIHgyPSI4NCUiIHkxPSI4LjclIiB4MT0iNDIlIj4KICAgICAgICAgICAgPHN0b3Agb2Zmc2V0PSIwJSIgc3RvcC1jb2xvcj0iI0VCNkYwNyIvPgogICAgICAgICAgICA8c3RvcCBvZmZzZXQ9IjEwMCUiIHN0b3Atb3BhY2l0eT0iMCIgc3RvcC1jb2xvcj0iI0VCNzIwQSIvPgogICAgICAgIDwvbGluZWFyR3JhZGllbnQ+CiAgICAgICAgPGxpbmVhckdyYWRpZW50IGlkPSJjZldvcmtlcnNMaW5lYXJHcmFkaWVudC00IiB5Mj0iOC43JSIgeDI9IjI1LjclIiB5MT0iMTAwJSIgeDE9IjUwJSI+CiAgICAgICAgICAgIDxzdG9wIG9mZnNldD0iMCUiIHN0b3AtY29sb3I9IiNFRTZGMDUiLz4KICAgICAgICAgICAgPHN0b3Agb2Zmc2V0PSIxMDAlIiBzdG9wLWNvbG9yPSIjRkFCNzQzIi8+CiAgICAgICAgPC9saW5lYXJHcmFkaWVudD4KICAgICAgICA8bGluZWFyR3JhZGllbnQgaWQ9ImNmV29ya2Vyc0xpbmVhckdyYWRpZW50LTUiIHkyPSIwJSIgeDI9IjkxLjclIiB5MT0iMTAwJSIgeDE9Ii0zMy4yJSI+CiAgICAgICAgICAgIDxzdG9wIG9mZnNldD0iMCUiIHN0b3Atb3BhY2l0eT0iMC44IiBzdG9wLWNvbG9yPSIjRDk2NTA0Ii8+CiAgICAgICAgICAgIDxzdG9wIG9mZnNldD0iNDkuOCUiIHN0b3Atb3BhY2l0eT0iMC4yIiBzdG9wLWNvbG9yPSIjRDk2NTA0Ii8+CiAgICAgICAgICAgIDxzdG9wIG9mZnNldD0iMTAwJSIgc3RvcC1vcGFjaXR5PSIwIiBzdG9wLWNvbG9yPSIjRDk2NTA0Ii8+CiAgICAgICAgPC9saW5lYXJHcmFkaWVudD4KICAgICAgICA8bGluZWFyR3JhZGllbnQgaWQ9ImNmV29ya2Vyc0xpbmVhckdyYWRpZW50LTYiIHkyPSI4LjclIiB4Mj0iMjUuNyUiIHkxPSIxMDAlIiB4MT0iNTAlIj4KICAgICAgICAgICAgPHN0b3Agb2Zmc2V0PSIwJSIgc3RvcC1jb2xvcj0iI0ZGQTk1RiIvPgogICAgICAgICAgICA8c3RvcCBvZmZzZXQ9IjEwMCUiIHN0b3AtY29sb3I9IiNGRkVCQzgiLz4KICAgICAgICA8L2xpbmVhckdyYWRpZW50PgogICAgICAgIDxsaW5lYXJHcmFkaWVudCBpZD0iY2ZXb3JrZXJzTGluZWFyR3JhZGllbnQtNyIgeTI9IjQ4LjglIiB4Mj0iOTYuNSUiIHkxPSIxLjElIiB4MT0iOC4xJSI+CiAgICAgICAgICAgIDxzdG9wIG9mZnNldD0iMCUiIHN0b3Atb3BhY2l0eT0iMC41IiBzdG9wLWNvbG9yPSIjRkZGRkZGIi8+CiAgICAgICAgICAgIDxzdG9wIG9mZnNldD0iMTAwJSIgc3RvcC1vcGFjaXR5PSIwLjEiIHN0b3AtY29sb3I9IiNGRkZGRkYiLz4KICAgICAgICA8L2xpbmVhckdyYWRpZW50PgogICAgICAgIDxsaW5lYXJHcmFkaWVudCBpZD0iY2ZXb3JrZXJzTGluZWFyR3JhZGllbnQtOCIgeTI9IjQ2LjIlIiB4Mj0iMTAwJSIgeTE9IjEwNC4yJSIgeDE9Ii0xMy43JSI+CiAgICAgICAgICAgIDxzdG9wIG9mZnNldD0iMCUiIHN0b3Atb3BhY2l0eT0iMC41IiBzdG9wLWNvbG9yPSIjRkZGRkZGIi8+CiAgICAgICAgICAgIDxzdG9wIG9mZnNldD0iMTAwJSIgc3RvcC1vcGFjaXR5PSIwLjEiIHN0b3AtY29sb3I9IiNGRkZGRkYiLz4KICAgICAgICA8L2xpbmVhckdyYWRpZW50PgogICAgPC9kZWZzPgogICAgPGc+CiAgICAgICAgPHBhdGggZmlsbD0idXJsKCNjZldvcmtlcnNMaW5lYXJHcmFkaWVudC0xKSIgZD0iTTY1LjgyMDc5OSwzLjMyMzc4ODkzIEw5NS45ODExMDYsNTcuNzM1NDQ0OCBMNjguMjgyODY0OSwxMDcuNTkyMjc5IEM2NS41ODcwMTYxLDExMi40MzMxMTUgNjUuNTg3MDE2MSwxMTguMzI0MDA5IDY4LjI4Mjg2NDksMTIzLjE2NDg0NSBMOTUuOTgxMTA2LDE3My4xNDQ3ODMgTDY1LjgyMDc5OSwyMjcuNTU2NDM5IEM2MC4xNDU2OTA4LDIyNC43NDI4ODIgNTUuNDMzMDE5LDIyMC4zMDg2ODcgNTIuMjc5NDM2NywyMTQuODE1MjQ4IEw0LjI2OTE1MjE3LDEzMS40MTI3NjYgQy0xLjQyMzA1MDcyLDEyMS41MDMwNTQgLTEuNDIzMDUwNzIsMTA5LjMxNTYyMiA0LjI2OTE1MjE3LDk5LjQwNTkwOTcgTDUyLjI3OTQzNjcsMTYuMDAzNDI4MiBDNTUuNDQyNTUwMiwxMC41MzI3ODYyIDYwLjE1NDI4MTMsNi4xMjA4OTI0IDY1LjgyMDc5OSwzLjMyMzc4ODkzIFoiLz4KICAgICAgICA8cGF0aCBvcGFjaXR5PSIwLjciIGZpbGw9InVybCgjY2ZXb3JrZXJzTGluZWFyR3JhZGllbnQtMikiIGQ9Ik02OC4yODI4NjQ5LDEwNy42NTM4MyBDNjUuNjA5ODA5LDExMi40Nzg2NzcgNjUuNjA5ODA5LDExOC4zMzk5OTggNjguMjgyODY0OSwxMjMuMTY0ODQ1IEw5NS45ODExMDYsMTczLjE0NDc4MyBMNjUuODIwNzk5LDIyNy41NTY0MzkgQzYwLjE0NTY5MDgsMjI0Ljc0Mjg4MiA1NS40MzMwMTksMjIwLjMwODY4NyA1Mi4yNzk0MzY3LDIxNC44MTUyNDggTDQuMjY5MTUyMTcsMTMxLjQxMjc2NiBDMC40NTI5NTAwNjIsMTI0LjgyNjc0IDIxLjgxMTM3MTUsMTE2Ljk0ODEyOSA2OC4yODI4NjQ5LDEwNy43MTUzODIgTDY4LjI4Mjg2NDksMTA3LjY1MzgzIFoiLz4KICAgICAgICA8cGF0aCBvcGFjaXR5PSIwLjUiIGZpbGw9InVybCgjY2ZXb3JrZXJzTGluZWFyR3JhZGllbnQtMykiIGQ9Ik02OC44OTgzODE0LDguODAxODg1NSBMOTUuOTgxMTA2LDU3LjczNTQ0NDggTDkxLjQ4NzgzNTgsNjUuNTUyNTAzOSBMNjcuNjA1Nzk2OCwyNS4xMTMwNzE5IEM2MC43MTIwMTI0LDEzLjg0OTEyMDUgNTAuMTg2NjgwNywxOS42OTY1MjcgMzcuMDE0NjI4Myw0Mi40NzA2MzYzIEwzOC45ODQyODEsMzkuMDg1Mjk1OCBMNTIuMjc5NDM2NywxNi4wMDM0MjgyIEM1NS40MDk3MjI2LDEwLjU1MDY5MjcgNjAuMDc2NjQ0Myw2LjE0MDY2NTcyIDY1LjY5NzY5NTgsMy4zMjM3ODg5MyBMNjguODM2ODI5Nyw4LjgwMTg4NTUgTDY4Ljg5ODM4MTQsOC44MDE4ODU1IFoiLz4KICAgICAgICA8cGF0aCBmaWxsPSJ1cmwoI2NmV29ya2Vyc0xpbmVhckdyYWRpZW50LTQpIiBkPSJNMjAzLjY5NjQ4OCwxNi4wMDM0MjgyIEwyNTEuNzA2NzczLDk5LjQwNTkwOTcgQzI1Ny40MzEwNzYsMTA5LjI1NDE3MyAyNTcuNDMxMDc2LDEyMS41NjQ1MDMgMjUxLjcwNjc3MywxMzEuNDEyNzY2IEwyMDMuNjk2NDg4LDIxNC44MTUyNDggQzE5Ny45ODI2NzksMjI0LjcxMTg2MSAxODcuNDI1ODY3LDIzMC44MTEzNTIgMTc1Ljk5ODI0NywyMzAuODE4Njc2IEwxMjcuOTg3OTYyLDIzMC44MTg2NzYgTDE4Ny42OTMwNiwxMjMuMTY0ODQ1IEMxOTAuMzY2MTE2LDExOC4zMzk5OTggMTkwLjM2NjExNiwxMTIuNDc4Njc3IDE4Ny42OTMwNiwxMDcuNjUzODMgTDEyNy45ODc5NjIsMCBMMTc1Ljk5ODI0NywwIEMxODcuNDI1ODY3LDAuMDA3MzI0MDQzMTIgMTk3Ljk4MjY3OSw2LjEwNjgxNTI2IDIwMy42OTY0ODgsMTYuMDAzNDI4MiBMMjAzLjY5NjQ4OCwxNi4wMDM0MjgyIFoiLz4KICAgICAgICA8cGF0aCBmaWxsPSJ1cmwoI2NmV29ya2Vyc0xpbmVhckdyYWRpZW50LTUpIiBkPSJNMTczLjUzNjE4MSwyMzAuNDQ5MzY2IEwxMjYuMTQxNDEzLDIzMC44ODAyMjcgTDE4My41MDc1NDgsMTIyLjY3MjQzMiBDMTg2LjExMTg2NywxMTcuNzg2NDI5IDE4Ni4xMTE4NjcsMTExLjkyNDMxOCAxODMuNTA3NTQ4LDEwNy4wMzgzMTQgTDEyNi4xNDE0MTMsMCBMMTM2Ljk3NDUwMywwIEwxOTcuMTcyMDEzLDEwNi41NDU5MDEgQzIwMC4wNzQ1MDcsMTExLjY2NzMzOSAyMDAuMDUxMDk0LDExNy45NDIxMDYgMTk3LjExMDQ2MiwxMjMuMDQxNzQyIEMxODQuMTU0NzcyLDE0NS41NTg0NjEgMTcxLjI5MDM3MywxNjguMTI3NTg0IDE1OC41MTc1NzksMTkwLjc0ODU1NCBDMTQ2LjgyMjc2NiwyMTEuMzA2ODA0IDE1MS44NzAwMDEsMjI0LjU0MDQwOCAxNzMuNTM2MTgxLDIzMC40NDkzNjYgTDE3My41MzYxODEsMjMwLjQ0OTM2NiBaIi8+CiAgICAgICAgPHBhdGggZmlsbD0idXJsKCNjZldvcmtlcnNMaW5lYXJHcmFkaWVudC02KSIgZD0iTTc5Ljk3NzY3NzgsMjMwLjgxODY3NiBDNzUuMDUzNTQ2MSwyMzAuODE4Njc2IDcwLjEyOTQxNDMsMjI5LjY0OTE5NSA2NS44MjA3OTksMjI3LjU1NjQzOSBMMTI1LjAzMzQ4MywxMjAuNzY0MzMxIEMxMjYuODgwMDMzLDExNy40NDA1NDIgMTI2Ljg4MDAzMywxMTMuMzc4MTM0IDEyNS4wMzM0ODMsMTEwLjA1NDM0NSBMNjUuODIwNzk5LDMuMzIzNzg4OTMgQzcwLjIyMjIzNTUsMS4xNDQzNDE0NyA3NS4wNjYyMDMsMC4wMDcwNjIxNDAxOSA3OS45Nzc2Nzc4LDAgTDEyNy45ODc5NjIsMCBMMTg3LjY5MzA2LDEwNy42NTM4MyBDMTkwLjM2NjExNiwxMTIuNDc4Njc3IDE5MC4zNjYxMTYsMTE4LjMzOTk5OCAxODcuNjkzMDYsMTIzLjE2NDg0NSBMMTI3Ljk4Nzk2MiwyMzAuODE4Njc2IEw3OS45Nzc2Nzc4LDIzMC44MTg2NzYgWiIvPgogICAgICAgIDxwYXRoIG9wYWNpdHk9IjAuNiIgZmlsbD0idXJsKCNjZldvcmtlcnNMaW5lYXJHcmFkaWVudC03KSIgZD0iTTE4My41MDc1NDgsMTEwLjA1NDM0NSBMMTIyLjQ0ODMxNCwwIEwxMjcuOTg3OTYyLDAgTDE4Ny42OTMwNiwxMDcuNjUzODMgQzE5MC4zNjYxMTYsMTEyLjQ3ODY3NyAxOTAuMzY2MTE2LDExOC4zMzk5OTggMTg3LjY5MzA2LDEyMy4xNjQ4NDUgTDEyNy45ODc5NjIsMjMwLjgxODY3NiBMMTIyLjQ0ODMxNCwyMzAuODE4Njc2IEwxODMuNTA3NTQ4LDEyMC43NjQzMzEgQzE4NS4zNTQwOTcsMTE3LjQ0MDU0MiAxODUuMzU0MDk3LDExMy4zNzgxMzQgMTgzLjUwNzU0OCwxMTAuMDU0MzQ1IFoiLz4KICAgICAgICA8cGF0aCBvcGFjaXR5PSIwLjYiIGZpbGw9InVybCgjY2ZXb3JrZXJzTGluZWFyR3JhZGllbnQtOCkiIGQ9Ik0xMjUuMDMzNDgzLDExMC4wNTQzNDUgTDY1LjgyMDc5OSwzLjMyMzc4ODkzIEM2Ny42NjczNDg1LDIuMzM4OTYyNTggNjkuODgzMjA3NywxLjYwMDM0MjgyIDcxLjk3NTk2MzcsMC45ODQ4MjYzNSBDODUuMDI0OTEyOSwyNC40MzYwMDM4IDEwNC4yOTA1NzgsNjAuMDEyODU1NyAxMjkuODM0NTEyLDEwNy42NTM4MyBDMTMyLjUwNzU2OCwxMTIuNDc4Njc3IDEzMi41MDc1NjgsMTE4LjMzOTk5OCAxMjkuODM0NTEyLDEyMy4xNjQ4NDUgTDcxLjA1MjY4OSwyMjkuNTg3NjQzIEM2OC45NTk5MzMsMjI4Ljk3MjEyNiA2Ny44NTIwMDM0LDIyOC41NDEyNjUgNjUuODgyMzUwNywyMjcuNjE3OTkgTDEyNC45NzE5MzIsMTIwLjgyNTg4MyBDMTI2LjgxODQ4MSwxMTcuNTAyMDk0IDEyNi44MTg0ODEsMTEzLjQzOTY4NSAxMjQuOTcxOTMyLDExMC4xMTU4OTYgTDEyNS4wMzM0ODMsMTEwLjA1NDM0NSBaIi8+CiAgICA8L2c+Cjwvc3ZnPg==;container=0;" parent="14" vertex="1">
                    <mxGeometry x="13.998417174223619" width="73" height="65.86961425671103" as="geometry"/>
                </mxCell>
                <mxCell id="16" value="Cron&lt;br&gt;RSS FeedのTrigger" style="text;html=1;align=center;verticalAlign=middle;resizable=0;points=[];autosize=1;strokeColor=none;fillColor=none;container=0;" parent="14" vertex="1">
                    <mxGeometry x="-15" y="65.87" width="130" height="40" as="geometry"/>
                </mxCell>
                <mxCell id="20" style="edgeStyle=none;html=1;entryX=0;entryY=0.5;entryDx=0;entryDy=0;startArrow=none;startFill=0;endArrow=classic;endFill=1;" parent="1" source="15" target="5" edge="1">
                    <mxGeometry relative="1" as="geometry">
                        <Array as="points">
                            <mxPoint x="230" y="313"/>
                        </Array>
                    </mxGeometry>
                </mxCell>
                <mxCell id="24" value="" style="group" parent="1" vertex="1" connectable="0">
                    <mxGeometry x="348.0015828257764" y="410" width="130" height="105.87" as="geometry"/>
                </mxCell>
                <mxCell id="18" value="" style="shape=image;imageAspect=0;aspect=fixed;verticalLabelPosition=bottom;verticalAlign=top;image=data:image/svg+xml,PHN2ZyB4bWxucz0iaHR0cDovL3d3dy53My5vcmcvMjAwMC9zdmciIHByZXNlcnZlQXNwZWN0UmF0aW89InhNaWRZTWlkIiB2ZXJzaW9uPSIxLjEiIHZpZXdCb3g9IjAgMCAyNTUuOTk5OTg0NzQxMjEwOTQgMjMwLjg4MDIzMzc2NDY0ODQ0IiBoZWlnaHQ9IjIzMC44ODAyMzM3NjQ2NDg0NCIgd2lkdGg9IjI1NS45OTk5ODQ3NDEyMTA5NCI+CiAgICA8dGl0bGU+Q2xvdWRGcmFtZSBXb3JrZXJzPC90aXRsZT4KICAgIDxkZWZzPgogICAgICAgIDxsaW5lYXJHcmFkaWVudCBpZD0iY2ZXb3JrZXJzTGluZWFyR3JhZGllbnQtMSIgeTI9IjguNyUiIHgyPSIyNS43JSIgeTE9IjEwMCUiIHgxPSI1MCUiPgogICAgICAgICAgICA8c3RvcCBvZmZzZXQ9IjAlIiBzdG9wLWNvbG9yPSIjRUI2RjA3Ii8+CiAgICAgICAgICAgIDxzdG9wIG9mZnNldD0iMTAwJSIgc3RvcC1jb2xvcj0iI0ZBQjc0MyIvPgogICAgICAgIDwvbGluZWFyR3JhZGllbnQ+CiAgICAgICAgPGxpbmVhckdyYWRpZW50IGlkPSJjZldvcmtlcnNMaW5lYXJHcmFkaWVudC0yIiB5Mj0iMjkuNSUiIHgyPSI0MC41JSIgeTE9IjgzLjclIiB4MT0iODElIj4KICAgICAgICAgICAgPHN0b3Agb2Zmc2V0PSIwJSIgc3RvcC1jb2xvcj0iI0Q5NjUwNCIvPgogICAgICAgICAgICA8c3RvcCBvZmZzZXQ9IjEwMCUiIHN0b3Atb3BhY2l0eT0iMCIgc3RvcC1jb2xvcj0iI0Q5NjUwNCIvPgogICAgICAgIDwvbGluZWFyR3JhZGllbnQ+CiAgICAgICAgPGxpbmVhckdyYWRpZW50IGlkPSJjZldvcmtlcnNMaW5lYXJHcmFkaWVudC0zIiB5Mj0iNzkuOSUiIHgyPSI4NCUiIHkxPSI4LjclIiB4MT0iNDIlIj4KICAgICAgICAgICAgPHN0b3Agb2Zmc2V0PSIwJSIgc3RvcC1jb2xvcj0iI0VCNkYwNyIvPgogICAgICAgICAgICA8c3RvcCBvZmZzZXQ9IjEwMCUiIHN0b3Atb3BhY2l0eT0iMCIgc3RvcC1jb2xvcj0iI0VCNzIwQSIvPgogICAgICAgIDwvbGluZWFyR3JhZGllbnQ+CiAgICAgICAgPGxpbmVhckdyYWRpZW50IGlkPSJjZldvcmtlcnNMaW5lYXJHcmFkaWVudC00IiB5Mj0iOC43JSIgeDI9IjI1LjclIiB5MT0iMTAwJSIgeDE9IjUwJSI+CiAgICAgICAgICAgIDxzdG9wIG9mZnNldD0iMCUiIHN0b3AtY29sb3I9IiNFRTZGMDUiLz4KICAgICAgICAgICAgPHN0b3Agb2Zmc2V0PSIxMDAlIiBzdG9wLWNvbG9yPSIjRkFCNzQzIi8+CiAgICAgICAgPC9saW5lYXJHcmFkaWVudD4KICAgICAgICA8bGluZWFyR3JhZGllbnQgaWQ9ImNmV29ya2Vyc0xpbmVhckdyYWRpZW50LTUiIHkyPSIwJSIgeDI9IjkxLjclIiB5MT0iMTAwJSIgeDE9Ii0zMy4yJSI+CiAgICAgICAgICAgIDxzdG9wIG9mZnNldD0iMCUiIHN0b3Atb3BhY2l0eT0iMC44IiBzdG9wLWNvbG9yPSIjRDk2NTA0Ii8+CiAgICAgICAgICAgIDxzdG9wIG9mZnNldD0iNDkuOCUiIHN0b3Atb3BhY2l0eT0iMC4yIiBzdG9wLWNvbG9yPSIjRDk2NTA0Ii8+CiAgICAgICAgICAgIDxzdG9wIG9mZnNldD0iMTAwJSIgc3RvcC1vcGFjaXR5PSIwIiBzdG9wLWNvbG9yPSIjRDk2NTA0Ii8+CiAgICAgICAgPC9saW5lYXJHcmFkaWVudD4KICAgICAgICA8bGluZWFyR3JhZGllbnQgaWQ9ImNmV29ya2Vyc0xpbmVhckdyYWRpZW50LTYiIHkyPSI4LjclIiB4Mj0iMjUuNyUiIHkxPSIxMDAlIiB4MT0iNTAlIj4KICAgICAgICAgICAgPHN0b3Agb2Zmc2V0PSIwJSIgc3RvcC1jb2xvcj0iI0ZGQTk1RiIvPgogICAgICAgICAgICA8c3RvcCBvZmZzZXQ9IjEwMCUiIHN0b3AtY29sb3I9IiNGRkVCQzgiLz4KICAgICAgICA8L2xpbmVhckdyYWRpZW50PgogICAgICAgIDxsaW5lYXJHcmFkaWVudCBpZD0iY2ZXb3JrZXJzTGluZWFyR3JhZGllbnQtNyIgeTI9IjQ4LjglIiB4Mj0iOTYuNSUiIHkxPSIxLjElIiB4MT0iOC4xJSI+CiAgICAgICAgICAgIDxzdG9wIG9mZnNldD0iMCUiIHN0b3Atb3BhY2l0eT0iMC41IiBzdG9wLWNvbG9yPSIjRkZGRkZGIi8+CiAgICAgICAgICAgIDxzdG9wIG9mZnNldD0iMTAwJSIgc3RvcC1vcGFjaXR5PSIwLjEiIHN0b3AtY29sb3I9IiNGRkZGRkYiLz4KICAgICAgICA8L2xpbmVhckdyYWRpZW50PgogICAgICAgIDxsaW5lYXJHcmFkaWVudCBpZD0iY2ZXb3JrZXJzTGluZWFyR3JhZGllbnQtOCIgeTI9IjQ2LjIlIiB4Mj0iMTAwJSIgeTE9IjEwNC4yJSIgeDE9Ii0xMy43JSI+CiAgICAgICAgICAgIDxzdG9wIG9mZnNldD0iMCUiIHN0b3Atb3BhY2l0eT0iMC41IiBzdG9wLWNvbG9yPSIjRkZGRkZGIi8+CiAgICAgICAgICAgIDxzdG9wIG9mZnNldD0iMTAwJSIgc3RvcC1vcGFjaXR5PSIwLjEiIHN0b3AtY29sb3I9IiNGRkZGRkYiLz4KICAgICAgICA8L2xpbmVhckdyYWRpZW50PgogICAgPC9kZWZzPgogICAgPGc+CiAgICAgICAgPHBhdGggZmlsbD0idXJsKCNjZldvcmtlcnNMaW5lYXJHcmFkaWVudC0xKSIgZD0iTTY1LjgyMDc5OSwzLjMyMzc4ODkzIEw5NS45ODExMDYsNTcuNzM1NDQ0OCBMNjguMjgyODY0OSwxMDcuNTkyMjc5IEM2NS41ODcwMTYxLDExMi40MzMxMTUgNjUuNTg3MDE2MSwxMTguMzI0MDA5IDY4LjI4Mjg2NDksMTIzLjE2NDg0NSBMOTUuOTgxMTA2LDE3My4xNDQ3ODMgTDY1LjgyMDc5OSwyMjcuNTU2NDM5IEM2MC4xNDU2OTA4LDIyNC43NDI4ODIgNTUuNDMzMDE5LDIyMC4zMDg2ODcgNTIuMjc5NDM2NywyMTQuODE1MjQ4IEw0LjI2OTE1MjE3LDEzMS40MTI3NjYgQy0xLjQyMzA1MDcyLDEyMS41MDMwNTQgLTEuNDIzMDUwNzIsMTA5LjMxNTYyMiA0LjI2OTE1MjE3LDk5LjQwNTkwOTcgTDUyLjI3OTQzNjcsMTYuMDAzNDI4MiBDNTUuNDQyNTUwMiwxMC41MzI3ODYyIDYwLjE1NDI4MTMsNi4xMjA4OTI0IDY1LjgyMDc5OSwzLjMyMzc4ODkzIFoiLz4KICAgICAgICA8cGF0aCBvcGFjaXR5PSIwLjciIGZpbGw9InVybCgjY2ZXb3JrZXJzTGluZWFyR3JhZGllbnQtMikiIGQ9Ik02OC4yODI4NjQ5LDEwNy42NTM4MyBDNjUuNjA5ODA5LDExMi40Nzg2NzcgNjUuNjA5ODA5LDExOC4zMzk5OTggNjguMjgyODY0OSwxMjMuMTY0ODQ1IEw5NS45ODExMDYsMTczLjE0NDc4MyBMNjUuODIwNzk5LDIyNy41NTY0MzkgQzYwLjE0NTY5MDgsMjI0Ljc0Mjg4MiA1NS40MzMwMTksMjIwLjMwODY4NyA1Mi4yNzk0MzY3LDIxNC44MTUyNDggTDQuMjY5MTUyMTcsMTMxLjQxMjc2NiBDMC40NTI5NTAwNjIsMTI0LjgyNjc0IDIxLjgxMTM3MTUsMTE2Ljk0ODEyOSA2OC4yODI4NjQ5LDEwNy43MTUzODIgTDY4LjI4Mjg2NDksMTA3LjY1MzgzIFoiLz4KICAgICAgICA8cGF0aCBvcGFjaXR5PSIwLjUiIGZpbGw9InVybCgjY2ZXb3JrZXJzTGluZWFyR3JhZGllbnQtMykiIGQ9Ik02OC44OTgzODE0LDguODAxODg1NSBMOTUuOTgxMTA2LDU3LjczNTQ0NDggTDkxLjQ4NzgzNTgsNjUuNTUyNTAzOSBMNjcuNjA1Nzk2OCwyNS4xMTMwNzE5IEM2MC43MTIwMTI0LDEzLjg0OTEyMDUgNTAuMTg2NjgwNywxOS42OTY1MjcgMzcuMDE0NjI4Myw0Mi40NzA2MzYzIEwzOC45ODQyODEsMzkuMDg1Mjk1OCBMNTIuMjc5NDM2NywxNi4wMDM0MjgyIEM1NS40MDk3MjI2LDEwLjU1MDY5MjcgNjAuMDc2NjQ0Myw2LjE0MDY2NTcyIDY1LjY5NzY5NTgsMy4zMjM3ODg5MyBMNjguODM2ODI5Nyw4LjgwMTg4NTUgTDY4Ljg5ODM4MTQsOC44MDE4ODU1IFoiLz4KICAgICAgICA8cGF0aCBmaWxsPSJ1cmwoI2NmV29ya2Vyc0xpbmVhckdyYWRpZW50LTQpIiBkPSJNMjAzLjY5NjQ4OCwxNi4wMDM0MjgyIEwyNTEuNzA2NzczLDk5LjQwNTkwOTcgQzI1Ny40MzEwNzYsMTA5LjI1NDE3MyAyNTcuNDMxMDc2LDEyMS41NjQ1MDMgMjUxLjcwNjc3MywxMzEuNDEyNzY2IEwyMDMuNjk2NDg4LDIxNC44MTUyNDggQzE5Ny45ODI2NzksMjI0LjcxMTg2MSAxODcuNDI1ODY3LDIzMC44MTEzNTIgMTc1Ljk5ODI0NywyMzAuODE4Njc2IEwxMjcuOTg3OTYyLDIzMC44MTg2NzYgTDE4Ny42OTMwNiwxMjMuMTY0ODQ1IEMxOTAuMzY2MTE2LDExOC4zMzk5OTggMTkwLjM2NjExNiwxMTIuNDc4Njc3IDE4Ny42OTMwNiwxMDcuNjUzODMgTDEyNy45ODc5NjIsMCBMMTc1Ljk5ODI0NywwIEMxODcuNDI1ODY3LDAuMDA3MzI0MDQzMTIgMTk3Ljk4MjY3OSw2LjEwNjgxNTI2IDIwMy42OTY0ODgsMTYuMDAzNDI4MiBMMjAzLjY5NjQ4OCwxNi4wMDM0MjgyIFoiLz4KICAgICAgICA8cGF0aCBmaWxsPSJ1cmwoI2NmV29ya2Vyc0xpbmVhckdyYWRpZW50LTUpIiBkPSJNMTczLjUzNjE4MSwyMzAuNDQ5MzY2IEwxMjYuMTQxNDEzLDIzMC44ODAyMjcgTDE4My41MDc1NDgsMTIyLjY3MjQzMiBDMTg2LjExMTg2NywxMTcuNzg2NDI5IDE4Ni4xMTE4NjcsMTExLjkyNDMxOCAxODMuNTA3NTQ4LDEwNy4wMzgzMTQgTDEyNi4xNDE0MTMsMCBMMTM2Ljk3NDUwMywwIEwxOTcuMTcyMDEzLDEwNi41NDU5MDEgQzIwMC4wNzQ1MDcsMTExLjY2NzMzOSAyMDAuMDUxMDk0LDExNy45NDIxMDYgMTk3LjExMDQ2MiwxMjMuMDQxNzQyIEMxODQuMTU0NzcyLDE0NS41NTg0NjEgMTcxLjI5MDM3MywxNjguMTI3NTg0IDE1OC41MTc1NzksMTkwLjc0ODU1NCBDMTQ2LjgyMjc2NiwyMTEuMzA2ODA0IDE1MS44NzAwMDEsMjI0LjU0MDQwOCAxNzMuNTM2MTgxLDIzMC40NDkzNjYgTDE3My41MzYxODEsMjMwLjQ0OTM2NiBaIi8+CiAgICAgICAgPHBhdGggZmlsbD0idXJsKCNjZldvcmtlcnNMaW5lYXJHcmFkaWVudC02KSIgZD0iTTc5Ljk3NzY3NzgsMjMwLjgxODY3NiBDNzUuMDUzNTQ2MSwyMzAuODE4Njc2IDcwLjEyOTQxNDMsMjI5LjY0OTE5NSA2NS44MjA3OTksMjI3LjU1NjQzOSBMMTI1LjAzMzQ4MywxMjAuNzY0MzMxIEMxMjYuODgwMDMzLDExNy40NDA1NDIgMTI2Ljg4MDAzMywxMTMuMzc4MTM0IDEyNS4wMzM0ODMsMTEwLjA1NDM0NSBMNjUuODIwNzk5LDMuMzIzNzg4OTMgQzcwLjIyMjIzNTUsMS4xNDQzNDE0NyA3NS4wNjYyMDMsMC4wMDcwNjIxNDAxOSA3OS45Nzc2Nzc4LDAgTDEyNy45ODc5NjIsMCBMMTg3LjY5MzA2LDEwNy42NTM4MyBDMTkwLjM2NjExNiwxMTIuNDc4Njc3IDE5MC4zNjYxMTYsMTE4LjMzOTk5OCAxODcuNjkzMDYsMTIzLjE2NDg0NSBMMTI3Ljk4Nzk2MiwyMzAuODE4Njc2IEw3OS45Nzc2Nzc4LDIzMC44MTg2NzYgWiIvPgogICAgICAgIDxwYXRoIG9wYWNpdHk9IjAuNiIgZmlsbD0idXJsKCNjZldvcmtlcnNMaW5lYXJHcmFkaWVudC03KSIgZD0iTTE4My41MDc1NDgsMTEwLjA1NDM0NSBMMTIyLjQ0ODMxNCwwIEwxMjcuOTg3OTYyLDAgTDE4Ny42OTMwNiwxMDcuNjUzODMgQzE5MC4zNjYxMTYsMTEyLjQ3ODY3NyAxOTAuMzY2MTE2LDExOC4zMzk5OTggMTg3LjY5MzA2LDEyMy4xNjQ4NDUgTDEyNy45ODc5NjIsMjMwLjgxODY3NiBMMTIyLjQ0ODMxNCwyMzAuODE4Njc2IEwxODMuNTA3NTQ4LDEyMC43NjQzMzEgQzE4NS4zNTQwOTcsMTE3LjQ0MDU0MiAxODUuMzU0MDk3LDExMy4zNzgxMzQgMTgzLjUwNzU0OCwxMTAuMDU0MzQ1IFoiLz4KICAgICAgICA8cGF0aCBvcGFjaXR5PSIwLjYiIGZpbGw9InVybCgjY2ZXb3JrZXJzTGluZWFyR3JhZGllbnQtOCkiIGQ9Ik0xMjUuMDMzNDgzLDExMC4wNTQzNDUgTDY1LjgyMDc5OSwzLjMyMzc4ODkzIEM2Ny42NjczNDg1LDIuMzM4OTYyNTggNjkuODgzMjA3NywxLjYwMDM0MjgyIDcxLjk3NTk2MzcsMC45ODQ4MjYzNSBDODUuMDI0OTEyOSwyNC40MzYwMDM4IDEwNC4yOTA1NzgsNjAuMDEyODU1NyAxMjkuODM0NTEyLDEwNy42NTM4MyBDMTMyLjUwNzU2OCwxMTIuNDc4Njc3IDEzMi41MDc1NjgsMTE4LjMzOTk5OCAxMjkuODM0NTEyLDEyMy4xNjQ4NDUgTDcxLjA1MjY4OSwyMjkuNTg3NjQzIEM2OC45NTk5MzMsMjI4Ljk3MjEyNiA2Ny44NTIwMDM0LDIyOC41NDEyNjUgNjUuODgyMzUwNywyMjcuNjE3OTkgTDEyNC45NzE5MzIsMTIwLjgyNTg4MyBDMTI2LjgxODQ4MSwxMTcuNTAyMDk0IDEyNi44MTg0ODEsMTEzLjQzOTY4NSAxMjQuOTcxOTMyLDExMC4xMTU4OTYgTDEyNS4wMzM0ODMsMTEwLjA1NDM0NSBaIi8+CiAgICA8L2c+Cjwvc3ZnPg==;container=0;" parent="24" vertex="1">
                    <mxGeometry x="28.99841717422362" width="73" height="65.86961425671103" as="geometry"/>
                </mxCell>
                <mxCell id="19" value="Queue&lt;br&gt;取得処理のバファー" style="text;html=1;align=center;verticalAlign=middle;resizable=0;points=[];autosize=1;strokeColor=none;fillColor=none;container=0;" parent="24" vertex="1">
                    <mxGeometry y="65.87" width="130" height="40" as="geometry"/>
                </mxCell>
                <mxCell id="25" style="edgeStyle=none;html=1;startArrow=none;startFill=0;endArrow=classic;endFill=1;" parent="1" source="15" target="18" edge="1">
                    <mxGeometry relative="1" as="geometry"/>
                </mxCell>
                <mxCell id="29" value="" style="group" parent="1" vertex="1" connectable="0">
                    <mxGeometry x="670" y="280" width="130" height="105.87" as="geometry"/>
                </mxCell>
                <mxCell id="27" value="" style="shape=image;imageAspect=0;aspect=fixed;verticalLabelPosition=bottom;verticalAlign=top;image=data:image/svg+xml,PHN2ZyB4bWxucz0iaHR0cDovL3d3dy53My5vcmcvMjAwMC9zdmciIHByZXNlcnZlQXNwZWN0UmF0aW89InhNaWRZTWlkIiB2ZXJzaW9uPSIxLjEiIHZpZXdCb3g9IjAgMCAyNTUuOTk5OTg0NzQxMjEwOTQgMjMwLjg4MDIzMzc2NDY0ODQ0IiBoZWlnaHQ9IjIzMC44ODAyMzM3NjQ2NDg0NCIgd2lkdGg9IjI1NS45OTk5ODQ3NDEyMTA5NCI+CiAgICA8dGl0bGU+Q2xvdWRGcmFtZSBXb3JrZXJzPC90aXRsZT4KICAgIDxkZWZzPgogICAgICAgIDxsaW5lYXJHcmFkaWVudCBpZD0iY2ZXb3JrZXJzTGluZWFyR3JhZGllbnQtMSIgeTI9IjguNyUiIHgyPSIyNS43JSIgeTE9IjEwMCUiIHgxPSI1MCUiPgogICAgICAgICAgICA8c3RvcCBvZmZzZXQ9IjAlIiBzdG9wLWNvbG9yPSIjRUI2RjA3Ii8+CiAgICAgICAgICAgIDxzdG9wIG9mZnNldD0iMTAwJSIgc3RvcC1jb2xvcj0iI0ZBQjc0MyIvPgogICAgICAgIDwvbGluZWFyR3JhZGllbnQ+CiAgICAgICAgPGxpbmVhckdyYWRpZW50IGlkPSJjZldvcmtlcnNMaW5lYXJHcmFkaWVudC0yIiB5Mj0iMjkuNSUiIHgyPSI0MC41JSIgeTE9IjgzLjclIiB4MT0iODElIj4KICAgICAgICAgICAgPHN0b3Agb2Zmc2V0PSIwJSIgc3RvcC1jb2xvcj0iI0Q5NjUwNCIvPgogICAgICAgICAgICA8c3RvcCBvZmZzZXQ9IjEwMCUiIHN0b3Atb3BhY2l0eT0iMCIgc3RvcC1jb2xvcj0iI0Q5NjUwNCIvPgogICAgICAgIDwvbGluZWFyR3JhZGllbnQ+CiAgICAgICAgPGxpbmVhckdyYWRpZW50IGlkPSJjZldvcmtlcnNMaW5lYXJHcmFkaWVudC0zIiB5Mj0iNzkuOSUiIHgyPSI4NCUiIHkxPSI4LjclIiB4MT0iNDIlIj4KICAgICAgICAgICAgPHN0b3Agb2Zmc2V0PSIwJSIgc3RvcC1jb2xvcj0iI0VCNkYwNyIvPgogICAgICAgICAgICA8c3RvcCBvZmZzZXQ9IjEwMCUiIHN0b3Atb3BhY2l0eT0iMCIgc3RvcC1jb2xvcj0iI0VCNzIwQSIvPgogICAgICAgIDwvbGluZWFyR3JhZGllbnQ+CiAgICAgICAgPGxpbmVhckdyYWRpZW50IGlkPSJjZldvcmtlcnNMaW5lYXJHcmFkaWVudC00IiB5Mj0iOC43JSIgeDI9IjI1LjclIiB5MT0iMTAwJSIgeDE9IjUwJSI+CiAgICAgICAgICAgIDxzdG9wIG9mZnNldD0iMCUiIHN0b3AtY29sb3I9IiNFRTZGMDUiLz4KICAgICAgICAgICAgPHN0b3Agb2Zmc2V0PSIxMDAlIiBzdG9wLWNvbG9yPSIjRkFCNzQzIi8+CiAgICAgICAgPC9saW5lYXJHcmFkaWVudD4KICAgICAgICA8bGluZWFyR3JhZGllbnQgaWQ9ImNmV29ya2Vyc0xpbmVhckdyYWRpZW50LTUiIHkyPSIwJSIgeDI9IjkxLjclIiB5MT0iMTAwJSIgeDE9Ii0zMy4yJSI+CiAgICAgICAgICAgIDxzdG9wIG9mZnNldD0iMCUiIHN0b3Atb3BhY2l0eT0iMC44IiBzdG9wLWNvbG9yPSIjRDk2NTA0Ii8+CiAgICAgICAgICAgIDxzdG9wIG9mZnNldD0iNDkuOCUiIHN0b3Atb3BhY2l0eT0iMC4yIiBzdG9wLWNvbG9yPSIjRDk2NTA0Ii8+CiAgICAgICAgICAgIDxzdG9wIG9mZnNldD0iMTAwJSIgc3RvcC1vcGFjaXR5PSIwIiBzdG9wLWNvbG9yPSIjRDk2NTA0Ii8+CiAgICAgICAgPC9saW5lYXJHcmFkaWVudD4KICAgICAgICA8bGluZWFyR3JhZGllbnQgaWQ9ImNmV29ya2Vyc0xpbmVhckdyYWRpZW50LTYiIHkyPSI4LjclIiB4Mj0iMjUuNyUiIHkxPSIxMDAlIiB4MT0iNTAlIj4KICAgICAgICAgICAgPHN0b3Agb2Zmc2V0PSIwJSIgc3RvcC1jb2xvcj0iI0ZGQTk1RiIvPgogICAgICAgICAgICA8c3RvcCBvZmZzZXQ9IjEwMCUiIHN0b3AtY29sb3I9IiNGRkVCQzgiLz4KICAgICAgICA8L2xpbmVhckdyYWRpZW50PgogICAgICAgIDxsaW5lYXJHcmFkaWVudCBpZD0iY2ZXb3JrZXJzTGluZWFyR3JhZGllbnQtNyIgeTI9IjQ4LjglIiB4Mj0iOTYuNSUiIHkxPSIxLjElIiB4MT0iOC4xJSI+CiAgICAgICAgICAgIDxzdG9wIG9mZnNldD0iMCUiIHN0b3Atb3BhY2l0eT0iMC41IiBzdG9wLWNvbG9yPSIjRkZGRkZGIi8+CiAgICAgICAgICAgIDxzdG9wIG9mZnNldD0iMTAwJSIgc3RvcC1vcGFjaXR5PSIwLjEiIHN0b3AtY29sb3I9IiNGRkZGRkYiLz4KICAgICAgICA8L2xpbmVhckdyYWRpZW50PgogICAgICAgIDxsaW5lYXJHcmFkaWVudCBpZD0iY2ZXb3JrZXJzTGluZWFyR3JhZGllbnQtOCIgeTI9IjQ2LjIlIiB4Mj0iMTAwJSIgeTE9IjEwNC4yJSIgeDE9Ii0xMy43JSI+CiAgICAgICAgICAgIDxzdG9wIG9mZnNldD0iMCUiIHN0b3Atb3BhY2l0eT0iMC41IiBzdG9wLWNvbG9yPSIjRkZGRkZGIi8+CiAgICAgICAgICAgIDxzdG9wIG9mZnNldD0iMTAwJSIgc3RvcC1vcGFjaXR5PSIwLjEiIHN0b3AtY29sb3I9IiNGRkZGRkYiLz4KICAgICAgICA8L2xpbmVhckdyYWRpZW50PgogICAgPC9kZWZzPgogICAgPGc+CiAgICAgICAgPHBhdGggZmlsbD0idXJsKCNjZldvcmtlcnNMaW5lYXJHcmFkaWVudC0xKSIgZD0iTTY1LjgyMDc5OSwzLjMyMzc4ODkzIEw5NS45ODExMDYsNTcuNzM1NDQ0OCBMNjguMjgyODY0OSwxMDcuNTkyMjc5IEM2NS41ODcwMTYxLDExMi40MzMxMTUgNjUuNTg3MDE2MSwxMTguMzI0MDA5IDY4LjI4Mjg2NDksMTIzLjE2NDg0NSBMOTUuOTgxMTA2LDE3My4xNDQ3ODMgTDY1LjgyMDc5OSwyMjcuNTU2NDM5IEM2MC4xNDU2OTA4LDIyNC43NDI4ODIgNTUuNDMzMDE5LDIyMC4zMDg2ODcgNTIuMjc5NDM2NywyMTQuODE1MjQ4IEw0LjI2OTE1MjE3LDEzMS40MTI3NjYgQy0xLjQyMzA1MDcyLDEyMS41MDMwNTQgLTEuNDIzMDUwNzIsMTA5LjMxNTYyMiA0LjI2OTE1MjE3LDk5LjQwNTkwOTcgTDUyLjI3OTQzNjcsMTYuMDAzNDI4MiBDNTUuNDQyNTUwMiwxMC41MzI3ODYyIDYwLjE1NDI4MTMsNi4xMjA4OTI0IDY1LjgyMDc5OSwzLjMyMzc4ODkzIFoiLz4KICAgICAgICA8cGF0aCBvcGFjaXR5PSIwLjciIGZpbGw9InVybCgjY2ZXb3JrZXJzTGluZWFyR3JhZGllbnQtMikiIGQ9Ik02OC4yODI4NjQ5LDEwNy42NTM4MyBDNjUuNjA5ODA5LDExMi40Nzg2NzcgNjUuNjA5ODA5LDExOC4zMzk5OTggNjguMjgyODY0OSwxMjMuMTY0ODQ1IEw5NS45ODExMDYsMTczLjE0NDc4MyBMNjUuODIwNzk5LDIyNy41NTY0MzkgQzYwLjE0NTY5MDgsMjI0Ljc0Mjg4MiA1NS40MzMwMTksMjIwLjMwODY4NyA1Mi4yNzk0MzY3LDIxNC44MTUyNDggTDQuMjY5MTUyMTcsMTMxLjQxMjc2NiBDMC40NTI5NTAwNjIsMTI0LjgyNjc0IDIxLjgxMTM3MTUsMTE2Ljk0ODEyOSA2OC4yODI4NjQ5LDEwNy43MTUzODIgTDY4LjI4Mjg2NDksMTA3LjY1MzgzIFoiLz4KICAgICAgICA8cGF0aCBvcGFjaXR5PSIwLjUiIGZpbGw9InVybCgjY2ZXb3JrZXJzTGluZWFyR3JhZGllbnQtMykiIGQ9Ik02OC44OTgzODE0LDguODAxODg1NSBMOTUuOTgxMTA2LDU3LjczNTQ0NDggTDkxLjQ4NzgzNTgsNjUuNTUyNTAzOSBMNjcuNjA1Nzk2OCwyNS4xMTMwNzE5IEM2MC43MTIwMTI0LDEzLjg0OTEyMDUgNTAuMTg2NjgwNywxOS42OTY1MjcgMzcuMDE0NjI4Myw0Mi40NzA2MzYzIEwzOC45ODQyODEsMzkuMDg1Mjk1OCBMNTIuMjc5NDM2NywxNi4wMDM0MjgyIEM1NS40MDk3MjI2LDEwLjU1MDY5MjcgNjAuMDc2NjQ0Myw2LjE0MDY2NTcyIDY1LjY5NzY5NTgsMy4zMjM3ODg5MyBMNjguODM2ODI5Nyw4LjgwMTg4NTUgTDY4Ljg5ODM4MTQsOC44MDE4ODU1IFoiLz4KICAgICAgICA8cGF0aCBmaWxsPSJ1cmwoI2NmV29ya2Vyc0xpbmVhckdyYWRpZW50LTQpIiBkPSJNMjAzLjY5NjQ4OCwxNi4wMDM0MjgyIEwyNTEuNzA2NzczLDk5LjQwNTkwOTcgQzI1Ny40MzEwNzYsMTA5LjI1NDE3MyAyNTcuNDMxMDc2LDEyMS41NjQ1MDMgMjUxLjcwNjc3MywxMzEuNDEyNzY2IEwyMDMuNjk2NDg4LDIxNC44MTUyNDggQzE5Ny45ODI2NzksMjI0LjcxMTg2MSAxODcuNDI1ODY3LDIzMC44MTEzNTIgMTc1Ljk5ODI0NywyMzAuODE4Njc2IEwxMjcuOTg3OTYyLDIzMC44MTg2NzYgTDE4Ny42OTMwNiwxMjMuMTY0ODQ1IEMxOTAuMzY2MTE2LDExOC4zMzk5OTggMTkwLjM2NjExNiwxMTIuNDc4Njc3IDE4Ny42OTMwNiwxMDcuNjUzODMgTDEyNy45ODc5NjIsMCBMMTc1Ljk5ODI0NywwIEMxODcuNDI1ODY3LDAuMDA3MzI0MDQzMTIgMTk3Ljk4MjY3OSw2LjEwNjgxNTI2IDIwMy42OTY0ODgsMTYuMDAzNDI4MiBMMjAzLjY5NjQ4OCwxNi4wMDM0MjgyIFoiLz4KICAgICAgICA8cGF0aCBmaWxsPSJ1cmwoI2NmV29ya2Vyc0xpbmVhckdyYWRpZW50LTUpIiBkPSJNMTczLjUzNjE4MSwyMzAuNDQ5MzY2IEwxMjYuMTQxNDEzLDIzMC44ODAyMjcgTDE4My41MDc1NDgsMTIyLjY3MjQzMiBDMTg2LjExMTg2NywxMTcuNzg2NDI5IDE4Ni4xMTE4NjcsMTExLjkyNDMxOCAxODMuNTA3NTQ4LDEwNy4wMzgzMTQgTDEyNi4xNDE0MTMsMCBMMTM2Ljk3NDUwMywwIEwxOTcuMTcyMDEzLDEwNi41NDU5MDEgQzIwMC4wNzQ1MDcsMTExLjY2NzMzOSAyMDAuMDUxMDk0LDExNy45NDIxMDYgMTk3LjExMDQ2MiwxMjMuMDQxNzQyIEMxODQuMTU0NzcyLDE0NS41NTg0NjEgMTcxLjI5MDM3MywxNjguMTI3NTg0IDE1OC41MTc1NzksMTkwLjc0ODU1NCBDMTQ2LjgyMjc2NiwyMTEuMzA2ODA0IDE1MS44NzAwMDEsMjI0LjU0MDQwOCAxNzMuNTM2MTgxLDIzMC40NDkzNjYgTDE3My41MzYxODEsMjMwLjQ0OTM2NiBaIi8+CiAgICAgICAgPHBhdGggZmlsbD0idXJsKCNjZldvcmtlcnNMaW5lYXJHcmFkaWVudC02KSIgZD0iTTc5Ljk3NzY3NzgsMjMwLjgxODY3NiBDNzUuMDUzNTQ2MSwyMzAuODE4Njc2IDcwLjEyOTQxNDMsMjI5LjY0OTE5NSA2NS44MjA3OTksMjI3LjU1NjQzOSBMMTI1LjAzMzQ4MywxMjAuNzY0MzMxIEMxMjYuODgwMDMzLDExNy40NDA1NDIgMTI2Ljg4MDAzMywxMTMuMzc4MTM0IDEyNS4wMzM0ODMsMTEwLjA1NDM0NSBMNjUuODIwNzk5LDMuMzIzNzg4OTMgQzcwLjIyMjIzNTUsMS4xNDQzNDE0NyA3NS4wNjYyMDMsMC4wMDcwNjIxNDAxOSA3OS45Nzc2Nzc4LDAgTDEyNy45ODc5NjIsMCBMMTg3LjY5MzA2LDEwNy42NTM4MyBDMTkwLjM2NjExNiwxMTIuNDc4Njc3IDE5MC4zNjYxMTYsMTE4LjMzOTk5OCAxODcuNjkzMDYsMTIzLjE2NDg0NSBMMTI3Ljk4Nzk2MiwyMzAuODE4Njc2IEw3OS45Nzc2Nzc4LDIzMC44MTg2NzYgWiIvPgogICAgICAgIDxwYXRoIG9wYWNpdHk9IjAuNiIgZmlsbD0idXJsKCNjZldvcmtlcnNMaW5lYXJHcmFkaWVudC03KSIgZD0iTTE4My41MDc1NDgsMTEwLjA1NDM0NSBMMTIyLjQ0ODMxNCwwIEwxMjcuOTg3OTYyLDAgTDE4Ny42OTMwNiwxMDcuNjUzODMgQzE5MC4zNjYxMTYsMTEyLjQ3ODY3NyAxOTAuMzY2MTE2LDExOC4zMzk5OTggMTg3LjY5MzA2LDEyMy4xNjQ4NDUgTDEyNy45ODc5NjIsMjMwLjgxODY3NiBMMTIyLjQ0ODMxNCwyMzAuODE4Njc2IEwxODMuNTA3NTQ4LDEyMC43NjQzMzEgQzE4NS4zNTQwOTcsMTE3LjQ0MDU0MiAxODUuMzU0MDk3LDExMy4zNzgxMzQgMTgzLjUwNzU0OCwxMTAuMDU0MzQ1IFoiLz4KICAgICAgICA8cGF0aCBvcGFjaXR5PSIwLjYiIGZpbGw9InVybCgjY2ZXb3JrZXJzTGluZWFyR3JhZGllbnQtOCkiIGQ9Ik0xMjUuMDMzNDgzLDExMC4wNTQzNDUgTDY1LjgyMDc5OSwzLjMyMzc4ODkzIEM2Ny42NjczNDg1LDIuMzM4OTYyNTggNjkuODgzMjA3NywxLjYwMDM0MjgyIDcxLjk3NTk2MzcsMC45ODQ4MjYzNSBDODUuMDI0OTEyOSwyNC40MzYwMDM4IDEwNC4yOTA1NzgsNjAuMDEyODU1NyAxMjkuODM0NTEyLDEwNy42NTM4MyBDMTMyLjUwNzU2OCwxMTIuNDc4Njc3IDEzMi41MDc1NjgsMTE4LjMzOTk5OCAxMjkuODM0NTEyLDEyMy4xNjQ4NDUgTDcxLjA1MjY4OSwyMjkuNTg3NjQzIEM2OC45NTk5MzMsMjI4Ljk3MjEyNiA2Ny44NTIwMDM0LDIyOC41NDEyNjUgNjUuODgyMzUwNywyMjcuNjE3OTkgTDEyNC45NzE5MzIsMTIwLjgyNTg4MyBDMTI2LjgxODQ4MSwxMTcuNTAyMDk0IDEyNi44MTg0ODEsMTEzLjQzOTY4NSAxMjQuOTcxOTMyLDExMC4xMTU4OTYgTDEyNS4wMzM0ODMsMTEwLjA1NDM0NSBaIi8+CiAgICA8L2c+Cjwvc3ZnPg==;container=0;" parent="29" vertex="1">
                    <mxGeometry x="28.5" width="73" height="65.86961425671103" as="geometry"/>
                </mxCell>
                <mxCell id="28" value="Pages&lt;br&gt;Webフロントエンド" style="text;html=1;align=center;verticalAlign=middle;resizable=0;points=[];autosize=1;strokeColor=none;fillColor=none;" parent="29" vertex="1">
                    <mxGeometry y="65.87" width="130" height="40" as="geometry"/>
                </mxCell>
                <mxCell id="30" style="edgeStyle=none;html=1;entryX=0;entryY=0.5;entryDx=0;entryDy=0;startArrow=classic;startFill=1;endArrow=none;endFill=0;" parent="1" source="5" target="27" edge="1">
                    <mxGeometry relative="1" as="geometry"/>
                </mxCell>
                <mxCell id="38" value="" style="group" parent="1" vertex="1" connectable="0">
                    <mxGeometry x="516.5" y="410" width="140" height="125.87" as="geometry"/>
                </mxCell>
                <mxCell id="36" value="RSS Feedの取得処理" style="text;html=1;align=center;verticalAlign=middle;resizable=0;points=[];autosize=1;strokeColor=none;fillColor=none;" parent="38" vertex="1">
                    <mxGeometry y="95.87" width="140" height="30" as="geometry"/>
                </mxCell>
                <mxCell id="37" value="" style="group" parent="38" vertex="1" connectable="0">
                    <mxGeometry x="19.25" width="101.5" height="95.86961425671103" as="geometry"/>
                </mxCell>
                <mxCell id="31" value="" style="shape=image;imageAspect=0;aspect=fixed;verticalLabelPosition=bottom;verticalAlign=top;image=data:image/svg+xml,PHN2ZyB4bWxucz0iaHR0cDovL3d3dy53My5vcmcvMjAwMC9zdmciIHByZXNlcnZlQXNwZWN0UmF0aW89InhNaWRZTWlkIiB2ZXJzaW9uPSIxLjEiIHZpZXdCb3g9IjAgMCAyNTUuOTk5OTg0NzQxMjEwOTQgMjMwLjg4MDIzMzc2NDY0ODQ0IiBoZWlnaHQ9IjIzMC44ODAyMzM3NjQ2NDg0NCIgd2lkdGg9IjI1NS45OTk5ODQ3NDEyMTA5NCI+CiAgICA8dGl0bGU+Q2xvdWRGcmFtZSBXb3JrZXJzPC90aXRsZT4KICAgIDxkZWZzPgogICAgICAgIDxsaW5lYXJHcmFkaWVudCBpZD0iY2ZXb3JrZXJzTGluZWFyR3JhZGllbnQtMSIgeTI9IjguNyUiIHgyPSIyNS43JSIgeTE9IjEwMCUiIHgxPSI1MCUiPgogICAgICAgICAgICA8c3RvcCBvZmZzZXQ9IjAlIiBzdG9wLWNvbG9yPSIjRUI2RjA3Ii8+CiAgICAgICAgICAgIDxzdG9wIG9mZnNldD0iMTAwJSIgc3RvcC1jb2xvcj0iI0ZBQjc0MyIvPgogICAgICAgIDwvbGluZWFyR3JhZGllbnQ+CiAgICAgICAgPGxpbmVhckdyYWRpZW50IGlkPSJjZldvcmtlcnNMaW5lYXJHcmFkaWVudC0yIiB5Mj0iMjkuNSUiIHgyPSI0MC41JSIgeTE9IjgzLjclIiB4MT0iODElIj4KICAgICAgICAgICAgPHN0b3Agb2Zmc2V0PSIwJSIgc3RvcC1jb2xvcj0iI0Q5NjUwNCIvPgogICAgICAgICAgICA8c3RvcCBvZmZzZXQ9IjEwMCUiIHN0b3Atb3BhY2l0eT0iMCIgc3RvcC1jb2xvcj0iI0Q5NjUwNCIvPgogICAgICAgIDwvbGluZWFyR3JhZGllbnQ+CiAgICAgICAgPGxpbmVhckdyYWRpZW50IGlkPSJjZldvcmtlcnNMaW5lYXJHcmFkaWVudC0zIiB5Mj0iNzkuOSUiIHgyPSI4NCUiIHkxPSI4LjclIiB4MT0iNDIlIj4KICAgICAgICAgICAgPHN0b3Agb2Zmc2V0PSIwJSIgc3RvcC1jb2xvcj0iI0VCNkYwNyIvPgogICAgICAgICAgICA8c3RvcCBvZmZzZXQ9IjEwMCUiIHN0b3Atb3BhY2l0eT0iMCIgc3RvcC1jb2xvcj0iI0VCNzIwQSIvPgogICAgICAgIDwvbGluZWFyR3JhZGllbnQ+CiAgICAgICAgPGxpbmVhckdyYWRpZW50IGlkPSJjZldvcmtlcnNMaW5lYXJHcmFkaWVudC00IiB5Mj0iOC43JSIgeDI9IjI1LjclIiB5MT0iMTAwJSIgeDE9IjUwJSI+CiAgICAgICAgICAgIDxzdG9wIG9mZnNldD0iMCUiIHN0b3AtY29sb3I9IiNFRTZGMDUiLz4KICAgICAgICAgICAgPHN0b3Agb2Zmc2V0PSIxMDAlIiBzdG9wLWNvbG9yPSIjRkFCNzQzIi8+CiAgICAgICAgPC9saW5lYXJHcmFkaWVudD4KICAgICAgICA8bGluZWFyR3JhZGllbnQgaWQ9ImNmV29ya2Vyc0xpbmVhckdyYWRpZW50LTUiIHkyPSIwJSIgeDI9IjkxLjclIiB5MT0iMTAwJSIgeDE9Ii0zMy4yJSI+CiAgICAgICAgICAgIDxzdG9wIG9mZnNldD0iMCUiIHN0b3Atb3BhY2l0eT0iMC44IiBzdG9wLWNvbG9yPSIjRDk2NTA0Ii8+CiAgICAgICAgICAgIDxzdG9wIG9mZnNldD0iNDkuOCUiIHN0b3Atb3BhY2l0eT0iMC4yIiBzdG9wLWNvbG9yPSIjRDk2NTA0Ii8+CiAgICAgICAgICAgIDxzdG9wIG9mZnNldD0iMTAwJSIgc3RvcC1vcGFjaXR5PSIwIiBzdG9wLWNvbG9yPSIjRDk2NTA0Ii8+CiAgICAgICAgPC9saW5lYXJHcmFkaWVudD4KICAgICAgICA8bGluZWFyR3JhZGllbnQgaWQ9ImNmV29ya2Vyc0xpbmVhckdyYWRpZW50LTYiIHkyPSI4LjclIiB4Mj0iMjUuNyUiIHkxPSIxMDAlIiB4MT0iNTAlIj4KICAgICAgICAgICAgPHN0b3Agb2Zmc2V0PSIwJSIgc3RvcC1jb2xvcj0iI0ZGQTk1RiIvPgogICAgICAgICAgICA8c3RvcCBvZmZzZXQ9IjEwMCUiIHN0b3AtY29sb3I9IiNGRkVCQzgiLz4KICAgICAgICA8L2xpbmVhckdyYWRpZW50PgogICAgICAgIDxsaW5lYXJHcmFkaWVudCBpZD0iY2ZXb3JrZXJzTGluZWFyR3JhZGllbnQtNyIgeTI9IjQ4LjglIiB4Mj0iOTYuNSUiIHkxPSIxLjElIiB4MT0iOC4xJSI+CiAgICAgICAgICAgIDxzdG9wIG9mZnNldD0iMCUiIHN0b3Atb3BhY2l0eT0iMC41IiBzdG9wLWNvbG9yPSIjRkZGRkZGIi8+CiAgICAgICAgICAgIDxzdG9wIG9mZnNldD0iMTAwJSIgc3RvcC1vcGFjaXR5PSIwLjEiIHN0b3AtY29sb3I9IiNGRkZGRkYiLz4KICAgICAgICA8L2xpbmVhckdyYWRpZW50PgogICAgICAgIDxsaW5lYXJHcmFkaWVudCBpZD0iY2ZXb3JrZXJzTGluZWFyR3JhZGllbnQtOCIgeTI9IjQ2LjIlIiB4Mj0iMTAwJSIgeTE9IjEwNC4yJSIgeDE9Ii0xMy43JSI+CiAgICAgICAgICAgIDxzdG9wIG9mZnNldD0iMCUiIHN0b3Atb3BhY2l0eT0iMC41IiBzdG9wLWNvbG9yPSIjRkZGRkZGIi8+CiAgICAgICAgICAgIDxzdG9wIG9mZnNldD0iMTAwJSIgc3RvcC1vcGFjaXR5PSIwLjEiIHN0b3AtY29sb3I9IiNGRkZGRkYiLz4KICAgICAgICA8L2xpbmVhckdyYWRpZW50PgogICAgPC9kZWZzPgogICAgPGc+CiAgICAgICAgPHBhdGggZmlsbD0idXJsKCNjZldvcmtlcnNMaW5lYXJHcmFkaWVudC0xKSIgZD0iTTY1LjgyMDc5OSwzLjMyMzc4ODkzIEw5NS45ODExMDYsNTcuNzM1NDQ0OCBMNjguMjgyODY0OSwxMDcuNTkyMjc5IEM2NS41ODcwMTYxLDExMi40MzMxMTUgNjUuNTg3MDE2MSwxMTguMzI0MDA5IDY4LjI4Mjg2NDksMTIzLjE2NDg0NSBMOTUuOTgxMTA2LDE3My4xNDQ3ODMgTDY1LjgyMDc5OSwyMjcuNTU2NDM5IEM2MC4xNDU2OTA4LDIyNC43NDI4ODIgNTUuNDMzMDE5LDIyMC4zMDg2ODcgNTIuMjc5NDM2NywyMTQuODE1MjQ4IEw0LjI2OTE1MjE3LDEzMS40MTI3NjYgQy0xLjQyMzA1MDcyLDEyMS41MDMwNTQgLTEuNDIzMDUwNzIsMTA5LjMxNTYyMiA0LjI2OTE1MjE3LDk5LjQwNTkwOTcgTDUyLjI3OTQzNjcsMTYuMDAzNDI4MiBDNTUuNDQyNTUwMiwxMC41MzI3ODYyIDYwLjE1NDI4MTMsNi4xMjA4OTI0IDY1LjgyMDc5OSwzLjMyMzc4ODkzIFoiLz4KICAgICAgICA8cGF0aCBvcGFjaXR5PSIwLjciIGZpbGw9InVybCgjY2ZXb3JrZXJzTGluZWFyR3JhZGllbnQtMikiIGQ9Ik02OC4yODI4NjQ5LDEwNy42NTM4MyBDNjUuNjA5ODA5LDExMi40Nzg2NzcgNjUuNjA5ODA5LDExOC4zMzk5OTggNjguMjgyODY0OSwxMjMuMTY0ODQ1IEw5NS45ODExMDYsMTczLjE0NDc4MyBMNjUuODIwNzk5LDIyNy41NTY0MzkgQzYwLjE0NTY5MDgsMjI0Ljc0Mjg4MiA1NS40MzMwMTksMjIwLjMwODY4NyA1Mi4yNzk0MzY3LDIxNC44MTUyNDggTDQuMjY5MTUyMTcsMTMxLjQxMjc2NiBDMC40NTI5NTAwNjIsMTI0LjgyNjc0IDIxLjgxMTM3MTUsMTE2Ljk0ODEyOSA2OC4yODI4NjQ5LDEwNy43MTUzODIgTDY4LjI4Mjg2NDksMTA3LjY1MzgzIFoiLz4KICAgICAgICA8cGF0aCBvcGFjaXR5PSIwLjUiIGZpbGw9InVybCgjY2ZXb3JrZXJzTGluZWFyR3JhZGllbnQtMykiIGQ9Ik02OC44OTgzODE0LDguODAxODg1NSBMOTUuOTgxMTA2LDU3LjczNTQ0NDggTDkxLjQ4NzgzNTgsNjUuNTUyNTAzOSBMNjcuNjA1Nzk2OCwyNS4xMTMwNzE5IEM2MC43MTIwMTI0LDEzLjg0OTEyMDUgNTAuMTg2NjgwNywxOS42OTY1MjcgMzcuMDE0NjI4Myw0Mi40NzA2MzYzIEwzOC45ODQyODEsMzkuMDg1Mjk1OCBMNTIuMjc5NDM2NywxNi4wMDM0MjgyIEM1NS40MDk3MjI2LDEwLjU1MDY5MjcgNjAuMDc2NjQ0Myw2LjE0MDY2NTcyIDY1LjY5NzY5NTgsMy4zMjM3ODg5MyBMNjguODM2ODI5Nyw4LjgwMTg4NTUgTDY4Ljg5ODM4MTQsOC44MDE4ODU1IFoiLz4KICAgICAgICA8cGF0aCBmaWxsPSJ1cmwoI2NmV29ya2Vyc0xpbmVhckdyYWRpZW50LTQpIiBkPSJNMjAzLjY5NjQ4OCwxNi4wMDM0MjgyIEwyNTEuNzA2NzczLDk5LjQwNTkwOTcgQzI1Ny40MzEwNzYsMTA5LjI1NDE3MyAyNTcuNDMxMDc2LDEyMS41NjQ1MDMgMjUxLjcwNjc3MywxMzEuNDEyNzY2IEwyMDMuNjk2NDg4LDIxNC44MTUyNDggQzE5Ny45ODI2NzksMjI0LjcxMTg2MSAxODcuNDI1ODY3LDIzMC44MTEzNTIgMTc1Ljk5ODI0NywyMzAuODE4Njc2IEwxMjcuOTg3OTYyLDIzMC44MTg2NzYgTDE4Ny42OTMwNiwxMjMuMTY0ODQ1IEMxOTAuMzY2MTE2LDExOC4zMzk5OTggMTkwLjM2NjExNiwxMTIuNDc4Njc3IDE4Ny42OTMwNiwxMDcuNjUzODMgTDEyNy45ODc5NjIsMCBMMTc1Ljk5ODI0NywwIEMxODcuNDI1ODY3LDAuMDA3MzI0MDQzMTIgMTk3Ljk4MjY3OSw2LjEwNjgxNTI2IDIwMy42OTY0ODgsMTYuMDAzNDI4MiBMMjAzLjY5NjQ4OCwxNi4wMDM0MjgyIFoiLz4KICAgICAgICA8cGF0aCBmaWxsPSJ1cmwoI2NmV29ya2Vyc0xpbmVhckdyYWRpZW50LTUpIiBkPSJNMTczLjUzNjE4MSwyMzAuNDQ5MzY2IEwxMjYuMTQxNDEzLDIzMC44ODAyMjcgTDE4My41MDc1NDgsMTIyLjY3MjQzMiBDMTg2LjExMTg2NywxMTcuNzg2NDI5IDE4Ni4xMTE4NjcsMTExLjkyNDMxOCAxODMuNTA3NTQ4LDEwNy4wMzgzMTQgTDEyNi4xNDE0MTMsMCBMMTM2Ljk3NDUwMywwIEwxOTcuMTcyMDEzLDEwNi41NDU5MDEgQzIwMC4wNzQ1MDcsMTExLjY2NzMzOSAyMDAuMDUxMDk0LDExNy45NDIxMDYgMTk3LjExMDQ2MiwxMjMuMDQxNzQyIEMxODQuMTU0NzcyLDE0NS41NTg0NjEgMTcxLjI5MDM3MywxNjguMTI3NTg0IDE1OC41MTc1NzksMTkwLjc0ODU1NCBDMTQ2LjgyMjc2NiwyMTEuMzA2ODA0IDE1MS44NzAwMDEsMjI0LjU0MDQwOCAxNzMuNTM2MTgxLDIzMC40NDkzNjYgTDE3My41MzYxODEsMjMwLjQ0OTM2NiBaIi8+CiAgICAgICAgPHBhdGggZmlsbD0idXJsKCNjZldvcmtlcnNMaW5lYXJHcmFkaWVudC02KSIgZD0iTTc5Ljk3NzY3NzgsMjMwLjgxODY3NiBDNzUuMDUzNTQ2MSwyMzAuODE4Njc2IDcwLjEyOTQxNDMsMjI5LjY0OTE5NSA2NS44MjA3OTksMjI3LjU1NjQzOSBMMTI1LjAzMzQ4MywxMjAuNzY0MzMxIEMxMjYuODgwMDMzLDExNy40NDA1NDIgMTI2Ljg4MDAzMywxMTMuMzc4MTM0IDEyNS4wMzM0ODMsMTEwLjA1NDM0NSBMNjUuODIwNzk5LDMuMzIzNzg4OTMgQzcwLjIyMjIzNTUsMS4xNDQzNDE0NyA3NS4wNjYyMDMsMC4wMDcwNjIxNDAxOSA3OS45Nzc2Nzc4LDAgTDEyNy45ODc5NjIsMCBMMTg3LjY5MzA2LDEwNy42NTM4MyBDMTkwLjM2NjExNiwxMTIuNDc4Njc3IDE5MC4zNjYxMTYsMTE4LjMzOTk5OCAxODcuNjkzMDYsMTIzLjE2NDg0NSBMMTI3Ljk4Nzk2MiwyMzAuODE4Njc2IEw3OS45Nzc2Nzc4LDIzMC44MTg2NzYgWiIvPgogICAgICAgIDxwYXRoIG9wYWNpdHk9IjAuNiIgZmlsbD0idXJsKCNjZldvcmtlcnNMaW5lYXJHcmFkaWVudC03KSIgZD0iTTE4My41MDc1NDgsMTEwLjA1NDM0NSBMMTIyLjQ0ODMxNCwwIEwxMjcuOTg3OTYyLDAgTDE4Ny42OTMwNiwxMDcuNjUzODMgQzE5MC4zNjYxMTYsMTEyLjQ3ODY3NyAxOTAuMzY2MTE2LDExOC4zMzk5OTggMTg3LjY5MzA2LDEyMy4xNjQ4NDUgTDEyNy45ODc5NjIsMjMwLjgxODY3NiBMMTIyLjQ0ODMxNCwyMzAuODE4Njc2IEwxODMuNTA3NTQ4LDEyMC43NjQzMzEgQzE4NS4zNTQwOTcsMTE3LjQ0MDU0MiAxODUuMzU0MDk3LDExMy4zNzgxMzQgMTgzLjUwNzU0OCwxMTAuMDU0MzQ1IFoiLz4KICAgICAgICA8cGF0aCBvcGFjaXR5PSIwLjYiIGZpbGw9InVybCgjY2ZXb3JrZXJzTGluZWFyR3JhZGllbnQtOCkiIGQ9Ik0xMjUuMDMzNDgzLDExMC4wNTQzNDUgTDY1LjgyMDc5OSwzLjMyMzc4ODkzIEM2Ny42NjczNDg1LDIuMzM4OTYyNTggNjkuODgzMjA3NywxLjYwMDM0MjgyIDcxLjk3NTk2MzcsMC45ODQ4MjYzNSBDODUuMDI0OTEyOSwyNC40MzYwMDM4IDEwNC4yOTA1NzgsNjAuMDEyODU1NyAxMjkuODM0NTEyLDEwNy42NTM4MyBDMTMyLjUwNzU2OCwxMTIuNDc4Njc3IDEzMi41MDc1NjgsMTE4LjMzOTk5OCAxMjkuODM0NTEyLDEyMy4xNjQ4NDUgTDcxLjA1MjY4OSwyMjkuNTg3NjQzIEM2OC45NTk5MzMsMjI4Ljk3MjEyNiA2Ny44NTIwMDM0LDIyOC41NDEyNjUgNjUuODgyMzUwNywyMjcuNjE3OTkgTDEyNC45NzE5MzIsMTIwLjgyNTg4MyBDMTI2LjgxODQ4MSwxMTcuNTAyMDk0IDEyNi44MTg0ODEsMTEzLjQzOTY4NSAxMjQuOTcxOTMyLDExMC4xMTU4OTYgTDEyNS4wMzM0ODMsMTEwLjA1NDM0NSBaIi8+CiAgICA8L2c+Cjwvc3ZnPg==;container=0;labelBackgroundColor=#000000;" parent="37" vertex="1">
                    <mxGeometry width="73" height="65.86961425671103" as="geometry"/>
                </mxCell>
                <mxCell id="32" value="" style="shape=image;imageAspect=0;aspect=fixed;verticalLabelPosition=bottom;verticalAlign=top;image=data:image/svg+xml,PHN2ZyB4bWxucz0iaHR0cDovL3d3dy53My5vcmcvMjAwMC9zdmciIHByZXNlcnZlQXNwZWN0UmF0aW89InhNaWRZTWlkIiB2ZXJzaW9uPSIxLjEiIHZpZXdCb3g9IjAgMCAyNTUuOTk5OTg0NzQxMjEwOTQgMjMwLjg4MDIzMzc2NDY0ODQ0IiBoZWlnaHQ9IjIzMC44ODAyMzM3NjQ2NDg0NCIgd2lkdGg9IjI1NS45OTk5ODQ3NDEyMTA5NCI+CiAgICA8dGl0bGU+Q2xvdWRGcmFtZSBXb3JrZXJzPC90aXRsZT4KICAgIDxkZWZzPgogICAgICAgIDxsaW5lYXJHcmFkaWVudCBpZD0iY2ZXb3JrZXJzTGluZWFyR3JhZGllbnQtMSIgeTI9IjguNyUiIHgyPSIyNS43JSIgeTE9IjEwMCUiIHgxPSI1MCUiPgogICAgICAgICAgICA8c3RvcCBvZmZzZXQ9IjAlIiBzdG9wLWNvbG9yPSIjRUI2RjA3Ii8+CiAgICAgICAgICAgIDxzdG9wIG9mZnNldD0iMTAwJSIgc3RvcC1jb2xvcj0iI0ZBQjc0MyIvPgogICAgICAgIDwvbGluZWFyR3JhZGllbnQ+CiAgICAgICAgPGxpbmVhckdyYWRpZW50IGlkPSJjZldvcmtlcnNMaW5lYXJHcmFkaWVudC0yIiB5Mj0iMjkuNSUiIHgyPSI0MC41JSIgeTE9IjgzLjclIiB4MT0iODElIj4KICAgICAgICAgICAgPHN0b3Agb2Zmc2V0PSIwJSIgc3RvcC1jb2xvcj0iI0Q5NjUwNCIvPgogICAgICAgICAgICA8c3RvcCBvZmZzZXQ9IjEwMCUiIHN0b3Atb3BhY2l0eT0iMCIgc3RvcC1jb2xvcj0iI0Q5NjUwNCIvPgogICAgICAgIDwvbGluZWFyR3JhZGllbnQ+CiAgICAgICAgPGxpbmVhckdyYWRpZW50IGlkPSJjZldvcmtlcnNMaW5lYXJHcmFkaWVudC0zIiB5Mj0iNzkuOSUiIHgyPSI4NCUiIHkxPSI4LjclIiB4MT0iNDIlIj4KICAgICAgICAgICAgPHN0b3Agb2Zmc2V0PSIwJSIgc3RvcC1jb2xvcj0iI0VCNkYwNyIvPgogICAgICAgICAgICA8c3RvcCBvZmZzZXQ9IjEwMCUiIHN0b3Atb3BhY2l0eT0iMCIgc3RvcC1jb2xvcj0iI0VCNzIwQSIvPgogICAgICAgIDwvbGluZWFyR3JhZGllbnQ+CiAgICAgICAgPGxpbmVhckdyYWRpZW50IGlkPSJjZldvcmtlcnNMaW5lYXJHcmFkaWVudC00IiB5Mj0iOC43JSIgeDI9IjI1LjclIiB5MT0iMTAwJSIgeDE9IjUwJSI+CiAgICAgICAgICAgIDxzdG9wIG9mZnNldD0iMCUiIHN0b3AtY29sb3I9IiNFRTZGMDUiLz4KICAgICAgICAgICAgPHN0b3Agb2Zmc2V0PSIxMDAlIiBzdG9wLWNvbG9yPSIjRkFCNzQzIi8+CiAgICAgICAgPC9saW5lYXJHcmFkaWVudD4KICAgICAgICA8bGluZWFyR3JhZGllbnQgaWQ9ImNmV29ya2Vyc0xpbmVhckdyYWRpZW50LTUiIHkyPSIwJSIgeDI9IjkxLjclIiB5MT0iMTAwJSIgeDE9Ii0zMy4yJSI+CiAgICAgICAgICAgIDxzdG9wIG9mZnNldD0iMCUiIHN0b3Atb3BhY2l0eT0iMC44IiBzdG9wLWNvbG9yPSIjRDk2NTA0Ii8+CiAgICAgICAgICAgIDxzdG9wIG9mZnNldD0iNDkuOCUiIHN0b3Atb3BhY2l0eT0iMC4yIiBzdG9wLWNvbG9yPSIjRDk2NTA0Ii8+CiAgICAgICAgICAgIDxzdG9wIG9mZnNldD0iMTAwJSIgc3RvcC1vcGFjaXR5PSIwIiBzdG9wLWNvbG9yPSIjRDk2NTA0Ii8+CiAgICAgICAgPC9saW5lYXJHcmFkaWVudD4KICAgICAgICA8bGluZWFyR3JhZGllbnQgaWQ9ImNmV29ya2Vyc0xpbmVhckdyYWRpZW50LTYiIHkyPSI4LjclIiB4Mj0iMjUuNyUiIHkxPSIxMDAlIiB4MT0iNTAlIj4KICAgICAgICAgICAgPHN0b3Agb2Zmc2V0PSIwJSIgc3RvcC1jb2xvcj0iI0ZGQTk1RiIvPgogICAgICAgICAgICA8c3RvcCBvZmZzZXQ9IjEwMCUiIHN0b3AtY29sb3I9IiNGRkVCQzgiLz4KICAgICAgICA8L2xpbmVhckdyYWRpZW50PgogICAgICAgIDxsaW5lYXJHcmFkaWVudCBpZD0iY2ZXb3JrZXJzTGluZWFyR3JhZGllbnQtNyIgeTI9IjQ4LjglIiB4Mj0iOTYuNSUiIHkxPSIxLjElIiB4MT0iOC4xJSI+CiAgICAgICAgICAgIDxzdG9wIG9mZnNldD0iMCUiIHN0b3Atb3BhY2l0eT0iMC41IiBzdG9wLWNvbG9yPSIjRkZGRkZGIi8+CiAgICAgICAgICAgIDxzdG9wIG9mZnNldD0iMTAwJSIgc3RvcC1vcGFjaXR5PSIwLjEiIHN0b3AtY29sb3I9IiNGRkZGRkYiLz4KICAgICAgICA8L2xpbmVhckdyYWRpZW50PgogICAgICAgIDxsaW5lYXJHcmFkaWVudCBpZD0iY2ZXb3JrZXJzTGluZWFyR3JhZGllbnQtOCIgeTI9IjQ2LjIlIiB4Mj0iMTAwJSIgeTE9IjEwNC4yJSIgeDE9Ii0xMy43JSI+CiAgICAgICAgICAgIDxzdG9wIG9mZnNldD0iMCUiIHN0b3Atb3BhY2l0eT0iMC41IiBzdG9wLWNvbG9yPSIjRkZGRkZGIi8+CiAgICAgICAgICAgIDxzdG9wIG9mZnNldD0iMTAwJSIgc3RvcC1vcGFjaXR5PSIwLjEiIHN0b3AtY29sb3I9IiNGRkZGRkYiLz4KICAgICAgICA8L2xpbmVhckdyYWRpZW50PgogICAgPC9kZWZzPgogICAgPGc+CiAgICAgICAgPHBhdGggZmlsbD0idXJsKCNjZldvcmtlcnNMaW5lYXJHcmFkaWVudC0xKSIgZD0iTTY1LjgyMDc5OSwzLjMyMzc4ODkzIEw5NS45ODExMDYsNTcuNzM1NDQ0OCBMNjguMjgyODY0OSwxMDcuNTkyMjc5IEM2NS41ODcwMTYxLDExMi40MzMxMTUgNjUuNTg3MDE2MSwxMTguMzI0MDA5IDY4LjI4Mjg2NDksMTIzLjE2NDg0NSBMOTUuOTgxMTA2LDE3My4xNDQ3ODMgTDY1LjgyMDc5OSwyMjcuNTU2NDM5IEM2MC4xNDU2OTA4LDIyNC43NDI4ODIgNTUuNDMzMDE5LDIyMC4zMDg2ODcgNTIuMjc5NDM2NywyMTQuODE1MjQ4IEw0LjI2OTE1MjE3LDEzMS40MTI3NjYgQy0xLjQyMzA1MDcyLDEyMS41MDMwNTQgLTEuNDIzMDUwNzIsMTA5LjMxNTYyMiA0LjI2OTE1MjE3LDk5LjQwNTkwOTcgTDUyLjI3OTQzNjcsMTYuMDAzNDI4MiBDNTUuNDQyNTUwMiwxMC41MzI3ODYyIDYwLjE1NDI4MTMsNi4xMjA4OTI0IDY1LjgyMDc5OSwzLjMyMzc4ODkzIFoiLz4KICAgICAgICA8cGF0aCBvcGFjaXR5PSIwLjciIGZpbGw9InVybCgjY2ZXb3JrZXJzTGluZWFyR3JhZGllbnQtMikiIGQ9Ik02OC4yODI4NjQ5LDEwNy42NTM4MyBDNjUuNjA5ODA5LDExMi40Nzg2NzcgNjUuNjA5ODA5LDExOC4zMzk5OTggNjguMjgyODY0OSwxMjMuMTY0ODQ1IEw5NS45ODExMDYsMTczLjE0NDc4MyBMNjUuODIwNzk5LDIyNy41NTY0MzkgQzYwLjE0NTY5MDgsMjI0Ljc0Mjg4MiA1NS40MzMwMTksMjIwLjMwODY4NyA1Mi4yNzk0MzY3LDIxNC44MTUyNDggTDQuMjY5MTUyMTcsMTMxLjQxMjc2NiBDMC40NTI5NTAwNjIsMTI0LjgyNjc0IDIxLjgxMTM3MTUsMTE2Ljk0ODEyOSA2OC4yODI4NjQ5LDEwNy43MTUzODIgTDY4LjI4Mjg2NDksMTA3LjY1MzgzIFoiLz4KICAgICAgICA8cGF0aCBvcGFjaXR5PSIwLjUiIGZpbGw9InVybCgjY2ZXb3JrZXJzTGluZWFyR3JhZGllbnQtMykiIGQ9Ik02OC44OTgzODE0LDguODAxODg1NSBMOTUuOTgxMTA2LDU3LjczNTQ0NDggTDkxLjQ4NzgzNTgsNjUuNTUyNTAzOSBMNjcuNjA1Nzk2OCwyNS4xMTMwNzE5IEM2MC43MTIwMTI0LDEzLjg0OTEyMDUgNTAuMTg2NjgwNywxOS42OTY1MjcgMzcuMDE0NjI4Myw0Mi40NzA2MzYzIEwzOC45ODQyODEsMzkuMDg1Mjk1OCBMNTIuMjc5NDM2NywxNi4wMDM0MjgyIEM1NS40MDk3MjI2LDEwLjU1MDY5MjcgNjAuMDc2NjQ0Myw2LjE0MDY2NTcyIDY1LjY5NzY5NTgsMy4zMjM3ODg5MyBMNjguODM2ODI5Nyw4LjgwMTg4NTUgTDY4Ljg5ODM4MTQsOC44MDE4ODU1IFoiLz4KICAgICAgICA8cGF0aCBmaWxsPSJ1cmwoI2NmV29ya2Vyc0xpbmVhckdyYWRpZW50LTQpIiBkPSJNMjAzLjY5NjQ4OCwxNi4wMDM0MjgyIEwyNTEuNzA2NzczLDk5LjQwNTkwOTcgQzI1Ny40MzEwNzYsMTA5LjI1NDE3MyAyNTcuNDMxMDc2LDEyMS41NjQ1MDMgMjUxLjcwNjc3MywxMzEuNDEyNzY2IEwyMDMuNjk2NDg4LDIxNC44MTUyNDggQzE5Ny45ODI2NzksMjI0LjcxMTg2MSAxODcuNDI1ODY3LDIzMC44MTEzNTIgMTc1Ljk5ODI0NywyMzAuODE4Njc2IEwxMjcuOTg3OTYyLDIzMC44MTg2NzYgTDE4Ny42OTMwNiwxMjMuMTY0ODQ1IEMxOTAuMzY2MTE2LDExOC4zMzk5OTggMTkwLjM2NjExNiwxMTIuNDc4Njc3IDE4Ny42OTMwNiwxMDcuNjUzODMgTDEyNy45ODc5NjIsMCBMMTc1Ljk5ODI0NywwIEMxODcuNDI1ODY3LDAuMDA3MzI0MDQzMTIgMTk3Ljk4MjY3OSw2LjEwNjgxNTI2IDIwMy42OTY0ODgsMTYuMDAzNDI4MiBMMjAzLjY5NjQ4OCwxNi4wMDM0MjgyIFoiLz4KICAgICAgICA8cGF0aCBmaWxsPSJ1cmwoI2NmV29ya2Vyc0xpbmVhckdyYWRpZW50LTUpIiBkPSJNMTczLjUzNjE4MSwyMzAuNDQ5MzY2IEwxMjYuMTQxNDEzLDIzMC44ODAyMjcgTDE4My41MDc1NDgsMTIyLjY3MjQzMiBDMTg2LjExMTg2NywxMTcuNzg2NDI5IDE4Ni4xMTE4NjcsMTExLjkyNDMxOCAxODMuNTA3NTQ4LDEwNy4wMzgzMTQgTDEyNi4xNDE0MTMsMCBMMTM2Ljk3NDUwMywwIEwxOTcuMTcyMDEzLDEwNi41NDU5MDEgQzIwMC4wNzQ1MDcsMTExLjY2NzMzOSAyMDAuMDUxMDk0LDExNy45NDIxMDYgMTk3LjExMDQ2MiwxMjMuMDQxNzQyIEMxODQuMTU0NzcyLDE0NS41NTg0NjEgMTcxLjI5MDM3MywxNjguMTI3NTg0IDE1OC41MTc1NzksMTkwLjc0ODU1NCBDMTQ2LjgyMjc2NiwyMTEuMzA2ODA0IDE1MS44NzAwMDEsMjI0LjU0MDQwOCAxNzMuNTM2MTgxLDIzMC40NDkzNjYgTDE3My41MzYxODEsMjMwLjQ0OTM2NiBaIi8+CiAgICAgICAgPHBhdGggZmlsbD0idXJsKCNjZldvcmtlcnNMaW5lYXJHcmFkaWVudC02KSIgZD0iTTc5Ljk3NzY3NzgsMjMwLjgxODY3NiBDNzUuMDUzNTQ2MSwyMzAuODE4Njc2IDcwLjEyOTQxNDMsMjI5LjY0OTE5NSA2NS44MjA3OTksMjI3LjU1NjQzOSBMMTI1LjAzMzQ4MywxMjAuNzY0MzMxIEMxMjYuODgwMDMzLDExNy40NDA1NDIgMTI2Ljg4MDAzMywxMTMuMzc4MTM0IDEyNS4wMzM0ODMsMTEwLjA1NDM0NSBMNjUuODIwNzk5LDMuMzIzNzg4OTMgQzcwLjIyMjIzNTUsMS4xNDQzNDE0NyA3NS4wNjYyMDMsMC4wMDcwNjIxNDAxOSA3OS45Nzc2Nzc4LDAgTDEyNy45ODc5NjIsMCBMMTg3LjY5MzA2LDEwNy42NTM4MyBDMTkwLjM2NjExNiwxMTIuNDc4Njc3IDE5MC4zNjYxMTYsMTE4LjMzOTk5OCAxODcuNjkzMDYsMTIzLjE2NDg0NSBMMTI3Ljk4Nzk2MiwyMzAuODE4Njc2IEw3OS45Nzc2Nzc4LDIzMC44MTg2NzYgWiIvPgogICAgICAgIDxwYXRoIG9wYWNpdHk9IjAuNiIgZmlsbD0idXJsKCNjZldvcmtlcnNMaW5lYXJHcmFkaWVudC03KSIgZD0iTTE4My41MDc1NDgsMTEwLjA1NDM0NSBMMTIyLjQ0ODMxNCwwIEwxMjcuOTg3OTYyLDAgTDE4Ny42OTMwNiwxMDcuNjUzODMgQzE5MC4zNjYxMTYsMTEyLjQ3ODY3NyAxOTAuMzY2MTE2LDExOC4zMzk5OTggMTg3LjY5MzA2LDEyMy4xNjQ4NDUgTDEyNy45ODc5NjIsMjMwLjgxODY3NiBMMTIyLjQ0ODMxNCwyMzAuODE4Njc2IEwxODMuNTA3NTQ4LDEyMC43NjQzMzEgQzE4NS4zNTQwOTcsMTE3LjQ0MDU0MiAxODUuMzU0MDk3LDExMy4zNzgxMzQgMTgzLjUwNzU0OCwxMTAuMDU0MzQ1IFoiLz4KICAgICAgICA8cGF0aCBvcGFjaXR5PSIwLjYiIGZpbGw9InVybCgjY2ZXb3JrZXJzTGluZWFyR3JhZGllbnQtOCkiIGQ9Ik0xMjUuMDMzNDgzLDExMC4wNTQzNDUgTDY1LjgyMDc5OSwzLjMyMzc4ODkzIEM2Ny42NjczNDg1LDIuMzM4OTYyNTggNjkuODgzMjA3NywxLjYwMDM0MjgyIDcxLjk3NTk2MzcsMC45ODQ4MjYzNSBDODUuMDI0OTEyOSwyNC40MzYwMDM4IDEwNC4yOTA1NzgsNjAuMDEyODU1NyAxMjkuODM0NTEyLDEwNy42NTM4MyBDMTMyLjUwNzU2OCwxMTIuNDc4Njc3IDEzMi41MDc1NjgsMTE4LjMzOTk5OCAxMjkuODM0NTEyLDEyMy4xNjQ4NDUgTDcxLjA1MjY4OSwyMjkuNTg3NjQzIEM2OC45NTk5MzMsMjI4Ljk3MjEyNiA2Ny44NTIwMDM0LDIyOC41NDEyNjUgNjUuODgyMzUwNywyMjcuNjE3OTkgTDEyNC45NzE5MzIsMTIwLjgyNTg4MyBDMTI2LjgxODQ4MSwxMTcuNTAyMDk0IDEyNi44MTg0ODEsMTEzLjQzOTY4NSAxMjQuOTcxOTMyLDExMC4xMTU4OTYgTDEyNS4wMzM0ODMsMTEwLjA1NDM0NSBaIi8+CiAgICA8L2c+Cjwvc3ZnPg==;container=0;labelBackgroundColor=#000000;" parent="37" vertex="1">
                    <mxGeometry x="10" y="10" width="73" height="65.86961425671103" as="geometry"/>
                </mxCell>
                <mxCell id="33" value="" style="shape=image;imageAspect=0;aspect=fixed;verticalLabelPosition=bottom;verticalAlign=top;image=data:image/svg+xml,PHN2ZyB4bWxucz0iaHR0cDovL3d3dy53My5vcmcvMjAwMC9zdmciIHByZXNlcnZlQXNwZWN0UmF0aW89InhNaWRZTWlkIiB2ZXJzaW9uPSIxLjEiIHZpZXdCb3g9IjAgMCAyNTUuOTk5OTg0NzQxMjEwOTQgMjMwLjg4MDIzMzc2NDY0ODQ0IiBoZWlnaHQ9IjIzMC44ODAyMzM3NjQ2NDg0NCIgd2lkdGg9IjI1NS45OTk5ODQ3NDEyMTA5NCI+CiAgICA8dGl0bGU+Q2xvdWRGcmFtZSBXb3JrZXJzPC90aXRsZT4KICAgIDxkZWZzPgogICAgICAgIDxsaW5lYXJHcmFkaWVudCBpZD0iY2ZXb3JrZXJzTGluZWFyR3JhZGllbnQtMSIgeTI9IjguNyUiIHgyPSIyNS43JSIgeTE9IjEwMCUiIHgxPSI1MCUiPgogICAgICAgICAgICA8c3RvcCBvZmZzZXQ9IjAlIiBzdG9wLWNvbG9yPSIjRUI2RjA3Ii8+CiAgICAgICAgICAgIDxzdG9wIG9mZnNldD0iMTAwJSIgc3RvcC1jb2xvcj0iI0ZBQjc0MyIvPgogICAgICAgIDwvbGluZWFyR3JhZGllbnQ+CiAgICAgICAgPGxpbmVhckdyYWRpZW50IGlkPSJjZldvcmtlcnNMaW5lYXJHcmFkaWVudC0yIiB5Mj0iMjkuNSUiIHgyPSI0MC41JSIgeTE9IjgzLjclIiB4MT0iODElIj4KICAgICAgICAgICAgPHN0b3Agb2Zmc2V0PSIwJSIgc3RvcC1jb2xvcj0iI0Q5NjUwNCIvPgogICAgICAgICAgICA8c3RvcCBvZmZzZXQ9IjEwMCUiIHN0b3Atb3BhY2l0eT0iMCIgc3RvcC1jb2xvcj0iI0Q5NjUwNCIvPgogICAgICAgIDwvbGluZWFyR3JhZGllbnQ+CiAgICAgICAgPGxpbmVhckdyYWRpZW50IGlkPSJjZldvcmtlcnNMaW5lYXJHcmFkaWVudC0zIiB5Mj0iNzkuOSUiIHgyPSI4NCUiIHkxPSI4LjclIiB4MT0iNDIlIj4KICAgICAgICAgICAgPHN0b3Agb2Zmc2V0PSIwJSIgc3RvcC1jb2xvcj0iI0VCNkYwNyIvPgogICAgICAgICAgICA8c3RvcCBvZmZzZXQ9IjEwMCUiIHN0b3Atb3BhY2l0eT0iMCIgc3RvcC1jb2xvcj0iI0VCNzIwQSIvPgogICAgICAgIDwvbGluZWFyR3JhZGllbnQ+CiAgICAgICAgPGxpbmVhckdyYWRpZW50IGlkPSJjZldvcmtlcnNMaW5lYXJHcmFkaWVudC00IiB5Mj0iOC43JSIgeDI9IjI1LjclIiB5MT0iMTAwJSIgeDE9IjUwJSI+CiAgICAgICAgICAgIDxzdG9wIG9mZnNldD0iMCUiIHN0b3AtY29sb3I9IiNFRTZGMDUiLz4KICAgICAgICAgICAgPHN0b3Agb2Zmc2V0PSIxMDAlIiBzdG9wLWNvbG9yPSIjRkFCNzQzIi8+CiAgICAgICAgPC9saW5lYXJHcmFkaWVudD4KICAgICAgICA8bGluZWFyR3JhZGllbnQgaWQ9ImNmV29ya2Vyc0xpbmVhckdyYWRpZW50LTUiIHkyPSIwJSIgeDI9IjkxLjclIiB5MT0iMTAwJSIgeDE9Ii0zMy4yJSI+CiAgICAgICAgICAgIDxzdG9wIG9mZnNldD0iMCUiIHN0b3Atb3BhY2l0eT0iMC44IiBzdG9wLWNvbG9yPSIjRDk2NTA0Ii8+CiAgICAgICAgICAgIDxzdG9wIG9mZnNldD0iNDkuOCUiIHN0b3Atb3BhY2l0eT0iMC4yIiBzdG9wLWNvbG9yPSIjRDk2NTA0Ii8+CiAgICAgICAgICAgIDxzdG9wIG9mZnNldD0iMTAwJSIgc3RvcC1vcGFjaXR5PSIwIiBzdG9wLWNvbG9yPSIjRDk2NTA0Ii8+CiAgICAgICAgPC9saW5lYXJHcmFkaWVudD4KICAgICAgICA8bGluZWFyR3JhZGllbnQgaWQ9ImNmV29ya2Vyc0xpbmVhckdyYWRpZW50LTYiIHkyPSI4LjclIiB4Mj0iMjUuNyUiIHkxPSIxMDAlIiB4MT0iNTAlIj4KICAgICAgICAgICAgPHN0b3Agb2Zmc2V0PSIwJSIgc3RvcC1jb2xvcj0iI0ZGQTk1RiIvPgogICAgICAgICAgICA8c3RvcCBvZmZzZXQ9IjEwMCUiIHN0b3AtY29sb3I9IiNGRkVCQzgiLz4KICAgICAgICA8L2xpbmVhckdyYWRpZW50PgogICAgICAgIDxsaW5lYXJHcmFkaWVudCBpZD0iY2ZXb3JrZXJzTGluZWFyR3JhZGllbnQtNyIgeTI9IjQ4LjglIiB4Mj0iOTYuNSUiIHkxPSIxLjElIiB4MT0iOC4xJSI+CiAgICAgICAgICAgIDxzdG9wIG9mZnNldD0iMCUiIHN0b3Atb3BhY2l0eT0iMC41IiBzdG9wLWNvbG9yPSIjRkZGRkZGIi8+CiAgICAgICAgICAgIDxzdG9wIG9mZnNldD0iMTAwJSIgc3RvcC1vcGFjaXR5PSIwLjEiIHN0b3AtY29sb3I9IiNGRkZGRkYiLz4KICAgICAgICA8L2xpbmVhckdyYWRpZW50PgogICAgICAgIDxsaW5lYXJHcmFkaWVudCBpZD0iY2ZXb3JrZXJzTGluZWFyR3JhZGllbnQtOCIgeTI9IjQ2LjIlIiB4Mj0iMTAwJSIgeTE9IjEwNC4yJSIgeDE9Ii0xMy43JSI+CiAgICAgICAgICAgIDxzdG9wIG9mZnNldD0iMCUiIHN0b3Atb3BhY2l0eT0iMC41IiBzdG9wLWNvbG9yPSIjRkZGRkZGIi8+CiAgICAgICAgICAgIDxzdG9wIG9mZnNldD0iMTAwJSIgc3RvcC1vcGFjaXR5PSIwLjEiIHN0b3AtY29sb3I9IiNGRkZGRkYiLz4KICAgICAgICA8L2xpbmVhckdyYWRpZW50PgogICAgPC9kZWZzPgogICAgPGc+CiAgICAgICAgPHBhdGggZmlsbD0idXJsKCNjZldvcmtlcnNMaW5lYXJHcmFkaWVudC0xKSIgZD0iTTY1LjgyMDc5OSwzLjMyMzc4ODkzIEw5NS45ODExMDYsNTcuNzM1NDQ0OCBMNjguMjgyODY0OSwxMDcuNTkyMjc5IEM2NS41ODcwMTYxLDExMi40MzMxMTUgNjUuNTg3MDE2MSwxMTguMzI0MDA5IDY4LjI4Mjg2NDksMTIzLjE2NDg0NSBMOTUuOTgxMTA2LDE3My4xNDQ3ODMgTDY1LjgyMDc5OSwyMjcuNTU2NDM5IEM2MC4xNDU2OTA4LDIyNC43NDI4ODIgNTUuNDMzMDE5LDIyMC4zMDg2ODcgNTIuMjc5NDM2NywyMTQuODE1MjQ4IEw0LjI2OTE1MjE3LDEzMS40MTI3NjYgQy0xLjQyMzA1MDcyLDEyMS41MDMwNTQgLTEuNDIzMDUwNzIsMTA5LjMxNTYyMiA0LjI2OTE1MjE3LDk5LjQwNTkwOTcgTDUyLjI3OTQzNjcsMTYuMDAzNDI4MiBDNTUuNDQyNTUwMiwxMC41MzI3ODYyIDYwLjE1NDI4MTMsNi4xMjA4OTI0IDY1LjgyMDc5OSwzLjMyMzc4ODkzIFoiLz4KICAgICAgICA8cGF0aCBvcGFjaXR5PSIwLjciIGZpbGw9InVybCgjY2ZXb3JrZXJzTGluZWFyR3JhZGllbnQtMikiIGQ9Ik02OC4yODI4NjQ5LDEwNy42NTM4MyBDNjUuNjA5ODA5LDExMi40Nzg2NzcgNjUuNjA5ODA5LDExOC4zMzk5OTggNjguMjgyODY0OSwxMjMuMTY0ODQ1IEw5NS45ODExMDYsMTczLjE0NDc4MyBMNjUuODIwNzk5LDIyNy41NTY0MzkgQzYwLjE0NTY5MDgsMjI0Ljc0Mjg4MiA1NS40MzMwMTksMjIwLjMwODY4NyA1Mi4yNzk0MzY3LDIxNC44MTUyNDggTDQuMjY5MTUyMTcsMTMxLjQxMjc2NiBDMC40NTI5NTAwNjIsMTI0LjgyNjc0IDIxLjgxMTM3MTUsMTE2Ljk0ODEyOSA2OC4yODI4NjQ5LDEwNy43MTUzODIgTDY4LjI4Mjg2NDksMTA3LjY1MzgzIFoiLz4KICAgICAgICA8cGF0aCBvcGFjaXR5PSIwLjUiIGZpbGw9InVybCgjY2ZXb3JrZXJzTGluZWFyR3JhZGllbnQtMykiIGQ9Ik02OC44OTgzODE0LDguODAxODg1NSBMOTUuOTgxMTA2LDU3LjczNTQ0NDggTDkxLjQ4NzgzNTgsNjUuNTUyNTAzOSBMNjcuNjA1Nzk2OCwyNS4xMTMwNzE5IEM2MC43MTIwMTI0LDEzLjg0OTEyMDUgNTAuMTg2NjgwNywxOS42OTY1MjcgMzcuMDE0NjI4Myw0Mi40NzA2MzYzIEwzOC45ODQyODEsMzkuMDg1Mjk1OCBMNTIuMjc5NDM2NywxNi4wMDM0MjgyIEM1NS40MDk3MjI2LDEwLjU1MDY5MjcgNjAuMDc2NjQ0Myw2LjE0MDY2NTcyIDY1LjY5NzY5NTgsMy4zMjM3ODg5MyBMNjguODM2ODI5Nyw4LjgwMTg4NTUgTDY4Ljg5ODM4MTQsOC44MDE4ODU1IFoiLz4KICAgICAgICA8cGF0aCBmaWxsPSJ1cmwoI2NmV29ya2Vyc0xpbmVhckdyYWRpZW50LTQpIiBkPSJNMjAzLjY5NjQ4OCwxNi4wMDM0MjgyIEwyNTEuNzA2NzczLDk5LjQwNTkwOTcgQzI1Ny40MzEwNzYsMTA5LjI1NDE3MyAyNTcuNDMxMDc2LDEyMS41NjQ1MDMgMjUxLjcwNjc3MywxMzEuNDEyNzY2IEwyMDMuNjk2NDg4LDIxNC44MTUyNDggQzE5Ny45ODI2NzksMjI0LjcxMTg2MSAxODcuNDI1ODY3LDIzMC44MTEzNTIgMTc1Ljk5ODI0NywyMzAuODE4Njc2IEwxMjcuOTg3OTYyLDIzMC44MTg2NzYgTDE4Ny42OTMwNiwxMjMuMTY0ODQ1IEMxOTAuMzY2MTE2LDExOC4zMzk5OTggMTkwLjM2NjExNiwxMTIuNDc4Njc3IDE4Ny42OTMwNiwxMDcuNjUzODMgTDEyNy45ODc5NjIsMCBMMTc1Ljk5ODI0NywwIEMxODcuNDI1ODY3LDAuMDA3MzI0MDQzMTIgMTk3Ljk4MjY3OSw2LjEwNjgxNTI2IDIwMy42OTY0ODgsMTYuMDAzNDI4MiBMMjAzLjY5NjQ4OCwxNi4wMDM0MjgyIFoiLz4KICAgICAgICA8cGF0aCBmaWxsPSJ1cmwoI2NmV29ya2Vyc0xpbmVhckdyYWRpZW50LTUpIiBkPSJNMTczLjUzNjE4MSwyMzAuNDQ5MzY2IEwxMjYuMTQxNDEzLDIzMC44ODAyMjcgTDE4My41MDc1NDgsMTIyLjY3MjQzMiBDMTg2LjExMTg2NywxMTcuNzg2NDI5IDE4Ni4xMTE4NjcsMTExLjkyNDMxOCAxODMuNTA3NTQ4LDEwNy4wMzgzMTQgTDEyNi4xNDE0MTMsMCBMMTM2Ljk3NDUwMywwIEwxOTcuMTcyMDEzLDEwNi41NDU5MDEgQzIwMC4wNzQ1MDcsMTExLjY2NzMzOSAyMDAuMDUxMDk0LDExNy45NDIxMDYgMTk3LjExMDQ2MiwxMjMuMDQxNzQyIEMxODQuMTU0NzcyLDE0NS41NTg0NjEgMTcxLjI5MDM3MywxNjguMTI3NTg0IDE1OC41MTc1NzksMTkwLjc0ODU1NCBDMTQ2LjgyMjc2NiwyMTEuMzA2ODA0IDE1MS44NzAwMDEsMjI0LjU0MDQwOCAxNzMuNTM2MTgxLDIzMC40NDkzNjYgTDE3My41MzYxODEsMjMwLjQ0OTM2NiBaIi8+CiAgICAgICAgPHBhdGggZmlsbD0idXJsKCNjZldvcmtlcnNMaW5lYXJHcmFkaWVudC02KSIgZD0iTTc5Ljk3NzY3NzgsMjMwLjgxODY3NiBDNzUuMDUzNTQ2MSwyMzAuODE4Njc2IDcwLjEyOTQxNDMsMjI5LjY0OTE5NSA2NS44MjA3OTksMjI3LjU1NjQzOSBMMTI1LjAzMzQ4MywxMjAuNzY0MzMxIEMxMjYuODgwMDMzLDExNy40NDA1NDIgMTI2Ljg4MDAzMywxMTMuMzc4MTM0IDEyNS4wMzM0ODMsMTEwLjA1NDM0NSBMNjUuODIwNzk5LDMuMzIzNzg4OTMgQzcwLjIyMjIzNTUsMS4xNDQzNDE0NyA3NS4wNjYyMDMsMC4wMDcwNjIxNDAxOSA3OS45Nzc2Nzc4LDAgTDEyNy45ODc5NjIsMCBMMTg3LjY5MzA2LDEwNy42NTM4MyBDMTkwLjM2NjExNiwxMTIuNDc4Njc3IDE5MC4zNjYxMTYsMTE4LjMzOTk5OCAxODcuNjkzMDYsMTIzLjE2NDg0NSBMMTI3Ljk4Nzk2MiwyMzAuODE4Njc2IEw3OS45Nzc2Nzc4LDIzMC44MTg2NzYgWiIvPgogICAgICAgIDxwYXRoIG9wYWNpdHk9IjAuNiIgZmlsbD0idXJsKCNjZldvcmtlcnNMaW5lYXJHcmFkaWVudC03KSIgZD0iTTE4My41MDc1NDgsMTEwLjA1NDM0NSBMMTIyLjQ0ODMxNCwwIEwxMjcuOTg3OTYyLDAgTDE4Ny42OTMwNiwxMDcuNjUzODMgQzE5MC4zNjYxMTYsMTEyLjQ3ODY3NyAxOTAuMzY2MTE2LDExOC4zMzk5OTggMTg3LjY5MzA2LDEyMy4xNjQ4NDUgTDEyNy45ODc5NjIsMjMwLjgxODY3NiBMMTIyLjQ0ODMxNCwyMzAuODE4Njc2IEwxODMuNTA3NTQ4LDEyMC43NjQzMzEgQzE4NS4zNTQwOTcsMTE3LjQ0MDU0MiAxODUuMzU0MDk3LDExMy4zNzgxMzQgMTgzLjUwNzU0OCwxMTAuMDU0MzQ1IFoiLz4KICAgICAgICA8cGF0aCBvcGFjaXR5PSIwLjYiIGZpbGw9InVybCgjY2ZXb3JrZXJzTGluZWFyR3JhZGllbnQtOCkiIGQ9Ik0xMjUuMDMzNDgzLDExMC4wNTQzNDUgTDY1LjgyMDc5OSwzLjMyMzc4ODkzIEM2Ny42NjczNDg1LDIuMzM4OTYyNTggNjkuODgzMjA3NywxLjYwMDM0MjgyIDcxLjk3NTk2MzcsMC45ODQ4MjYzNSBDODUuMDI0OTEyOSwyNC40MzYwMDM4IDEwNC4yOTA1NzgsNjAuMDEyODU1NyAxMjkuODM0NTEyLDEwNy42NTM4MyBDMTMyLjUwNzU2OCwxMTIuNDc4Njc3IDEzMi41MDc1NjgsMTE4LjMzOTk5OCAxMjkuODM0NTEyLDEyMy4xNjQ4NDUgTDcxLjA1MjY4OSwyMjkuNTg3NjQzIEM2OC45NTk5MzMsMjI4Ljk3MjEyNiA2Ny44NTIwMDM0LDIyOC41NDEyNjUgNjUuODgyMzUwNywyMjcuNjE3OTkgTDEyNC45NzE5MzIsMTIwLjgyNTg4MyBDMTI2LjgxODQ4MSwxMTcuNTAyMDk0IDEyNi44MTg0ODEsMTEzLjQzOTY4NSAxMjQuOTcxOTMyLDExMC4xMTU4OTYgTDEyNS4wMzM0ODMsMTEwLjA1NDM0NSBaIi8+CiAgICA8L2c+Cjwvc3ZnPg==;container=0;labelBackgroundColor=#000000;" parent="37" vertex="1">
                    <mxGeometry x="20" y="20" width="73" height="65.86961425671103" as="geometry"/>
                </mxCell>
                <mxCell id="34" value="" style="shape=image;imageAspect=0;aspect=fixed;verticalLabelPosition=bottom;verticalAlign=top;image=data:image/svg+xml,PHN2ZyB4bWxucz0iaHR0cDovL3d3dy53My5vcmcvMjAwMC9zdmciIHByZXNlcnZlQXNwZWN0UmF0aW89InhNaWRZTWlkIiB2ZXJzaW9uPSIxLjEiIHZpZXdCb3g9IjAgMCAyNTUuOTk5OTg0NzQxMjEwOTQgMjMwLjg4MDIzMzc2NDY0ODQ0IiBoZWlnaHQ9IjIzMC44ODAyMzM3NjQ2NDg0NCIgd2lkdGg9IjI1NS45OTk5ODQ3NDEyMTA5NCI+CiAgICA8dGl0bGU+Q2xvdWRGcmFtZSBXb3JrZXJzPC90aXRsZT4KICAgIDxkZWZzPgogICAgICAgIDxsaW5lYXJHcmFkaWVudCBpZD0iY2ZXb3JrZXJzTGluZWFyR3JhZGllbnQtMSIgeTI9IjguNyUiIHgyPSIyNS43JSIgeTE9IjEwMCUiIHgxPSI1MCUiPgogICAgICAgICAgICA8c3RvcCBvZmZzZXQ9IjAlIiBzdG9wLWNvbG9yPSIjRUI2RjA3Ii8+CiAgICAgICAgICAgIDxzdG9wIG9mZnNldD0iMTAwJSIgc3RvcC1jb2xvcj0iI0ZBQjc0MyIvPgogICAgICAgIDwvbGluZWFyR3JhZGllbnQ+CiAgICAgICAgPGxpbmVhckdyYWRpZW50IGlkPSJjZldvcmtlcnNMaW5lYXJHcmFkaWVudC0yIiB5Mj0iMjkuNSUiIHgyPSI0MC41JSIgeTE9IjgzLjclIiB4MT0iODElIj4KICAgICAgICAgICAgPHN0b3Agb2Zmc2V0PSIwJSIgc3RvcC1jb2xvcj0iI0Q5NjUwNCIvPgogICAgICAgICAgICA8c3RvcCBvZmZzZXQ9IjEwMCUiIHN0b3Atb3BhY2l0eT0iMCIgc3RvcC1jb2xvcj0iI0Q5NjUwNCIvPgogICAgICAgIDwvbGluZWFyR3JhZGllbnQ+CiAgICAgICAgPGxpbmVhckdyYWRpZW50IGlkPSJjZldvcmtlcnNMaW5lYXJHcmFkaWVudC0zIiB5Mj0iNzkuOSUiIHgyPSI4NCUiIHkxPSI4LjclIiB4MT0iNDIlIj4KICAgICAgICAgICAgPHN0b3Agb2Zmc2V0PSIwJSIgc3RvcC1jb2xvcj0iI0VCNkYwNyIvPgogICAgICAgICAgICA8c3RvcCBvZmZzZXQ9IjEwMCUiIHN0b3Atb3BhY2l0eT0iMCIgc3RvcC1jb2xvcj0iI0VCNzIwQSIvPgogICAgICAgIDwvbGluZWFyR3JhZGllbnQ+CiAgICAgICAgPGxpbmVhckdyYWRpZW50IGlkPSJjZldvcmtlcnNMaW5lYXJHcmFkaWVudC00IiB5Mj0iOC43JSIgeDI9IjI1LjclIiB5MT0iMTAwJSIgeDE9IjUwJSI+CiAgICAgICAgICAgIDxzdG9wIG9mZnNldD0iMCUiIHN0b3AtY29sb3I9IiNFRTZGMDUiLz4KICAgICAgICAgICAgPHN0b3Agb2Zmc2V0PSIxMDAlIiBzdG9wLWNvbG9yPSIjRkFCNzQzIi8+CiAgICAgICAgPC9saW5lYXJHcmFkaWVudD4KICAgICAgICA8bGluZWFyR3JhZGllbnQgaWQ9ImNmV29ya2Vyc0xpbmVhckdyYWRpZW50LTUiIHkyPSIwJSIgeDI9IjkxLjclIiB5MT0iMTAwJSIgeDE9Ii0zMy4yJSI+CiAgICAgICAgICAgIDxzdG9wIG9mZnNldD0iMCUiIHN0b3Atb3BhY2l0eT0iMC44IiBzdG9wLWNvbG9yPSIjRDk2NTA0Ii8+CiAgICAgICAgICAgIDxzdG9wIG9mZnNldD0iNDkuOCUiIHN0b3Atb3BhY2l0eT0iMC4yIiBzdG9wLWNvbG9yPSIjRDk2NTA0Ii8+CiAgICAgICAgICAgIDxzdG9wIG9mZnNldD0iMTAwJSIgc3RvcC1vcGFjaXR5PSIwIiBzdG9wLWNvbG9yPSIjRDk2NTA0Ii8+CiAgICAgICAgPC9saW5lYXJHcmFkaWVudD4KICAgICAgICA8bGluZWFyR3JhZGllbnQgaWQ9ImNmV29ya2Vyc0xpbmVhckdyYWRpZW50LTYiIHkyPSI4LjclIiB4Mj0iMjUuNyUiIHkxPSIxMDAlIiB4MT0iNTAlIj4KICAgICAgICAgICAgPHN0b3Agb2Zmc2V0PSIwJSIgc3RvcC1jb2xvcj0iI0ZGQTk1RiIvPgogICAgICAgICAgICA8c3RvcCBvZmZzZXQ9IjEwMCUiIHN0b3AtY29sb3I9IiNGRkVCQzgiLz4KICAgICAgICA8L2xpbmVhckdyYWRpZW50PgogICAgICAgIDxsaW5lYXJHcmFkaWVudCBpZD0iY2ZXb3JrZXJzTGluZWFyR3JhZGllbnQtNyIgeTI9IjQ4LjglIiB4Mj0iOTYuNSUiIHkxPSIxLjElIiB4MT0iOC4xJSI+CiAgICAgICAgICAgIDxzdG9wIG9mZnNldD0iMCUiIHN0b3Atb3BhY2l0eT0iMC41IiBzdG9wLWNvbG9yPSIjRkZGRkZGIi8+CiAgICAgICAgICAgIDxzdG9wIG9mZnNldD0iMTAwJSIgc3RvcC1vcGFjaXR5PSIwLjEiIHN0b3AtY29sb3I9IiNGRkZGRkYiLz4KICAgICAgICA8L2xpbmVhckdyYWRpZW50PgogICAgICAgIDxsaW5lYXJHcmFkaWVudCBpZD0iY2ZXb3JrZXJzTGluZWFyR3JhZGllbnQtOCIgeTI9IjQ2LjIlIiB4Mj0iMTAwJSIgeTE9IjEwNC4yJSIgeDE9Ii0xMy43JSI+CiAgICAgICAgICAgIDxzdG9wIG9mZnNldD0iMCUiIHN0b3Atb3BhY2l0eT0iMC41IiBzdG9wLWNvbG9yPSIjRkZGRkZGIi8+CiAgICAgICAgICAgIDxzdG9wIG9mZnNldD0iMTAwJSIgc3RvcC1vcGFjaXR5PSIwLjEiIHN0b3AtY29sb3I9IiNGRkZGRkYiLz4KICAgICAgICA8L2xpbmVhckdyYWRpZW50PgogICAgPC9kZWZzPgogICAgPGc+CiAgICAgICAgPHBhdGggZmlsbD0idXJsKCNjZldvcmtlcnNMaW5lYXJHcmFkaWVudC0xKSIgZD0iTTY1LjgyMDc5OSwzLjMyMzc4ODkzIEw5NS45ODExMDYsNTcuNzM1NDQ0OCBMNjguMjgyODY0OSwxMDcuNTkyMjc5IEM2NS41ODcwMTYxLDExMi40MzMxMTUgNjUuNTg3MDE2MSwxMTguMzI0MDA5IDY4LjI4Mjg2NDksMTIzLjE2NDg0NSBMOTUuOTgxMTA2LDE3My4xNDQ3ODMgTDY1LjgyMDc5OSwyMjcuNTU2NDM5IEM2MC4xNDU2OTA4LDIyNC43NDI4ODIgNTUuNDMzMDE5LDIyMC4zMDg2ODcgNTIuMjc5NDM2NywyMTQuODE1MjQ4IEw0LjI2OTE1MjE3LDEzMS40MTI3NjYgQy0xLjQyMzA1MDcyLDEyMS41MDMwNTQgLTEuNDIzMDUwNzIsMTA5LjMxNTYyMiA0LjI2OTE1MjE3LDk5LjQwNTkwOTcgTDUyLjI3OTQzNjcsMTYuMDAzNDI4MiBDNTUuNDQyNTUwMiwxMC41MzI3ODYyIDYwLjE1NDI4MTMsNi4xMjA4OTI0IDY1LjgyMDc5OSwzLjMyMzc4ODkzIFoiLz4KICAgICAgICA8cGF0aCBvcGFjaXR5PSIwLjciIGZpbGw9InVybCgjY2ZXb3JrZXJzTGluZWFyR3JhZGllbnQtMikiIGQ9Ik02OC4yODI4NjQ5LDEwNy42NTM4MyBDNjUuNjA5ODA5LDExMi40Nzg2NzcgNjUuNjA5ODA5LDExOC4zMzk5OTggNjguMjgyODY0OSwxMjMuMTY0ODQ1IEw5NS45ODExMDYsMTczLjE0NDc4MyBMNjUuODIwNzk5LDIyNy41NTY0MzkgQzYwLjE0NTY5MDgsMjI0Ljc0Mjg4MiA1NS40MzMwMTksMjIwLjMwODY4NyA1Mi4yNzk0MzY3LDIxNC44MTUyNDggTDQuMjY5MTUyMTcsMTMxLjQxMjc2NiBDMC40NTI5NTAwNjIsMTI0LjgyNjc0IDIxLjgxMTM3MTUsMTE2Ljk0ODEyOSA2OC4yODI4NjQ5LDEwNy43MTUzODIgTDY4LjI4Mjg2NDksMTA3LjY1MzgzIFoiLz4KICAgICAgICA8cGF0aCBvcGFjaXR5PSIwLjUiIGZpbGw9InVybCgjY2ZXb3JrZXJzTGluZWFyR3JhZGllbnQtMykiIGQ9Ik02OC44OTgzODE0LDguODAxODg1NSBMOTUuOTgxMTA2LDU3LjczNTQ0NDggTDkxLjQ4NzgzNTgsNjUuNTUyNTAzOSBMNjcuNjA1Nzk2OCwyNS4xMTMwNzE5IEM2MC43MTIwMTI0LDEzLjg0OTEyMDUgNTAuMTg2NjgwNywxOS42OTY1MjcgMzcuMDE0NjI4Myw0Mi40NzA2MzYzIEwzOC45ODQyODEsMzkuMDg1Mjk1OCBMNTIuMjc5NDM2NywxNi4wMDM0MjgyIEM1NS40MDk3MjI2LDEwLjU1MDY5MjcgNjAuMDc2NjQ0Myw2LjE0MDY2NTcyIDY1LjY5NzY5NTgsMy4zMjM3ODg5MyBMNjguODM2ODI5Nyw4LjgwMTg4NTUgTDY4Ljg5ODM4MTQsOC44MDE4ODU1IFoiLz4KICAgICAgICA8cGF0aCBmaWxsPSJ1cmwoI2NmV29ya2Vyc0xpbmVhckdyYWRpZW50LTQpIiBkPSJNMjAzLjY5NjQ4OCwxNi4wMDM0MjgyIEwyNTEuNzA2NzczLDk5LjQwNTkwOTcgQzI1Ny40MzEwNzYsMTA5LjI1NDE3MyAyNTcuNDMxMDc2LDEyMS41NjQ1MDMgMjUxLjcwNjc3MywxMzEuNDEyNzY2IEwyMDMuNjk2NDg4LDIxNC44MTUyNDggQzE5Ny45ODI2NzksMjI0LjcxMTg2MSAxODcuNDI1ODY3LDIzMC44MTEzNTIgMTc1Ljk5ODI0NywyMzAuODE4Njc2IEwxMjcuOTg3OTYyLDIzMC44MTg2NzYgTDE4Ny42OTMwNiwxMjMuMTY0ODQ1IEMxOTAuMzY2MTE2LDExOC4zMzk5OTggMTkwLjM2NjExNiwxMTIuNDc4Njc3IDE4Ny42OTMwNiwxMDcuNjUzODMgTDEyNy45ODc5NjIsMCBMMTc1Ljk5ODI0NywwIEMxODcuNDI1ODY3LDAuMDA3MzI0MDQzMTIgMTk3Ljk4MjY3OSw2LjEwNjgxNTI2IDIwMy42OTY0ODgsMTYuMDAzNDI4MiBMMjAzLjY5NjQ4OCwxNi4wMDM0MjgyIFoiLz4KICAgICAgICA8cGF0aCBmaWxsPSJ1cmwoI2NmV29ya2Vyc0xpbmVhckdyYWRpZW50LTUpIiBkPSJNMTczLjUzNjE4MSwyMzAuNDQ5MzY2IEwxMjYuMTQxNDEzLDIzMC44ODAyMjcgTDE4My41MDc1NDgsMTIyLjY3MjQzMiBDMTg2LjExMTg2NywxMTcuNzg2NDI5IDE4Ni4xMTE4NjcsMTExLjkyNDMxOCAxODMuNTA3NTQ4LDEwNy4wMzgzMTQgTDEyNi4xNDE0MTMsMCBMMTM2Ljk3NDUwMywwIEwxOTcuMTcyMDEzLDEwNi41NDU5MDEgQzIwMC4wNzQ1MDcsMTExLjY2NzMzOSAyMDAuMDUxMDk0LDExNy45NDIxMDYgMTk3LjExMDQ2MiwxMjMuMDQxNzQyIEMxODQuMTU0NzcyLDE0NS41NTg0NjEgMTcxLjI5MDM3MywxNjguMTI3NTg0IDE1OC41MTc1NzksMTkwLjc0ODU1NCBDMTQ2LjgyMjc2NiwyMTEuMzA2ODA0IDE1MS44NzAwMDEsMjI0LjU0MDQwOCAxNzMuNTM2MTgxLDIzMC40NDkzNjYgTDE3My41MzYxODEsMjMwLjQ0OTM2NiBaIi8+CiAgICAgICAgPHBhdGggZmlsbD0idXJsKCNjZldvcmtlcnNMaW5lYXJHcmFkaWVudC02KSIgZD0iTTc5Ljk3NzY3NzgsMjMwLjgxODY3NiBDNzUuMDUzNTQ2MSwyMzAuODE4Njc2IDcwLjEyOTQxNDMsMjI5LjY0OTE5NSA2NS44MjA3OTksMjI3LjU1NjQzOSBMMTI1LjAzMzQ4MywxMjAuNzY0MzMxIEMxMjYuODgwMDMzLDExNy40NDA1NDIgMTI2Ljg4MDAzMywxMTMuMzc4MTM0IDEyNS4wMzM0ODMsMTEwLjA1NDM0NSBMNjUuODIwNzk5LDMuMzIzNzg4OTMgQzcwLjIyMjIzNTUsMS4xNDQzNDE0NyA3NS4wNjYyMDMsMC4wMDcwNjIxNDAxOSA3OS45Nzc2Nzc4LDAgTDEyNy45ODc5NjIsMCBMMTg3LjY5MzA2LDEwNy42NTM4MyBDMTkwLjM2NjExNiwxMTIuNDc4Njc3IDE5MC4zNjYxMTYsMTE4LjMzOTk5OCAxODcuNjkzMDYsMTIzLjE2NDg0NSBMMTI3Ljk4Nzk2MiwyMzAuODE4Njc2IEw3OS45Nzc2Nzc4LDIzMC44MTg2NzYgWiIvPgogICAgICAgIDxwYXRoIG9wYWNpdHk9IjAuNiIgZmlsbD0idXJsKCNjZldvcmtlcnNMaW5lYXJHcmFkaWVudC03KSIgZD0iTTE4My41MDc1NDgsMTEwLjA1NDM0NSBMMTIyLjQ0ODMxNCwwIEwxMjcuOTg3OTYyLDAgTDE4Ny42OTMwNiwxMDcuNjUzODMgQzE5MC4zNjYxMTYsMTEyLjQ3ODY3NyAxOTAuMzY2MTE2LDExOC4zMzk5OTggMTg3LjY5MzA2LDEyMy4xNjQ4NDUgTDEyNy45ODc5NjIsMjMwLjgxODY3NiBMMTIyLjQ0ODMxNCwyMzAuODE4Njc2IEwxODMuNTA3NTQ4LDEyMC43NjQzMzEgQzE4NS4zNTQwOTcsMTE3LjQ0MDU0MiAxODUuMzU0MDk3LDExMy4zNzgxMzQgMTgzLjUwNzU0OCwxMTAuMDU0MzQ1IFoiLz4KICAgICAgICA8cGF0aCBvcGFjaXR5PSIwLjYiIGZpbGw9InVybCgjY2ZXb3JrZXJzTGluZWFyR3JhZGllbnQtOCkiIGQ9Ik0xMjUuMDMzNDgzLDExMC4wNTQzNDUgTDY1LjgyMDc5OSwzLjMyMzc4ODkzIEM2Ny42NjczNDg1LDIuMzM4OTYyNTggNjkuODgzMjA3NywxLjYwMDM0MjgyIDcxLjk3NTk2MzcsMC45ODQ4MjYzNSBDODUuMDI0OTEyOSwyNC40MzYwMDM4IDEwNC4yOTA1NzgsNjAuMDEyODU1NyAxMjkuODM0NTEyLDEwNy42NTM4MyBDMTMyLjUwNzU2OCwxMTIuNDc4Njc3IDEzMi41MDc1NjgsMTE4LjMzOTk5OCAxMjkuODM0NTEyLDEyMy4xNjQ4NDUgTDcxLjA1MjY4OSwyMjkuNTg3NjQzIEM2OC45NTk5MzMsMjI4Ljk3MjEyNiA2Ny44NTIwMDM0LDIyOC41NDEyNjUgNjUuODgyMzUwNywyMjcuNjE3OTkgTDEyNC45NzE5MzIsMTIwLjgyNTg4MyBDMTI2LjgxODQ4MSwxMTcuNTAyMDk0IDEyNi44MTg0ODEsMTEzLjQzOTY4NSAxMjQuOTcxOTMyLDExMC4xMTU4OTYgTDEyNS4wMzM0ODMsMTEwLjA1NDM0NSBaIi8+CiAgICA8L2c+Cjwvc3ZnPg==;container=0;labelBackgroundColor=#000000;" parent="37" vertex="1">
                    <mxGeometry x="28.5" y="30" width="73" height="65.86961425671103" as="geometry"/>
                </mxCell>
                <mxCell id="39" style="edgeStyle=none;html=1;entryX=0;entryY=0.5;entryDx=0;entryDy=0;labelBackgroundColor=none;startArrow=none;startFill=0;endArrow=classic;endFill=1;" parent="1" source="18" target="31" edge="1">
                    <mxGeometry relative="1" as="geometry"/>
                </mxCell>
                <mxCell id="40" style="edgeStyle=none;html=1;labelBackgroundColor=none;startArrow=none;startFill=0;endArrow=classic;endFill=1;exitX=0.5;exitY=0;exitDx=0;exitDy=0;entryX=1;entryY=0.5;entryDx=0;entryDy=0;" parent="1" source="31" target="5" edge="1">
                    <mxGeometry relative="1" as="geometry"/>
                </mxCell>
                <mxCell id="42" value="外部に公開しない処理" style="text;html=1;strokeColor=none;fillColor=none;align=center;verticalAlign=middle;whiteSpace=wrap;rounded=0;labelBackgroundColor=none;" parent="1" vertex="1">
                    <mxGeometry x="150" y="130" width="130" height="30" as="geometry"/>
                </mxCell>
                <mxCell id="44" style="edgeStyle=none;html=1;entryX=1;entryY=0.5;entryDx=0;entryDy=0;labelBackgroundColor=none;startArrow=none;startFill=0;endArrow=classic;endFill=1;" parent="1" source="43" target="27" edge="1">
                    <mxGeometry relative="1" as="geometry"/>
                </mxCell>
                <mxCell id="43" value="ユーザー" style="shape=umlActor;verticalLabelPosition=bottom;verticalAlign=top;html=1;outlineConnect=0;labelBackgroundColor=none;" parent="1" vertex="1">
                    <mxGeometry x="827" y="282.93" width="30" height="60" as="geometry"/>
                </mxCell>
                <mxCell id="48" value="RSS Feed&lt;br&gt;（Zennなど）" style="rounded=0;whiteSpace=wrap;html=1;" vertex="1" parent="1">
                    <mxGeometry x="720" y="442.93" width="120" height="60" as="geometry"/>
                </mxCell>
                <mxCell id="49" style="edgeStyle=none;html=1;entryX=0;entryY=0.5;entryDx=0;entryDy=0;" edge="1" parent="1" source="34" target="48">
                    <mxGeometry relative="1" as="geometry"/>
                </mxCell>
            </root>
        </mxGraphModel>
    </diagram>
</mxfile>
